<svg width="249" height="106" viewBox="0 0 249 106" fill="none" xmlns="http://www.w3.org/2000/svg">
<g filter="url(#filter0_dd_108_693)">
<rect x="5.00632" y="1.72577" width="242" height="94" rx="8" transform="rotate(2 5.00632 1.72577)" fill="white"/>
<rect x="5.24745" y="1.98434" width="241.5" height="93.5" rx="7.75" transform="rotate(2 5.24745 1.98434)" stroke="#F5FAEF" stroke-width="0.5"/>
<path d="M30.6002 46.6464L31.0455 33.8941L28.5411 34.379L28.601 32.6641L32.0611 31.288L33.5562 31.3402L33.0187 46.7308L30.6002 46.6464ZM42.0528 47.3105C40.6603 47.2618 39.4699 46.8901 38.4816 46.1952C37.5084 45.4861 36.7714 44.5285 36.2705 43.3222C35.7848 42.1019 35.5696 40.7002 35.6249 39.1171C35.6801 37.5341 35.9923 36.1582 36.5615 34.9893C37.1458 33.8063 37.9478 32.9024 38.9676 32.2776C40.0025 31.6387 41.2162 31.3435 42.6087 31.3922C44.0012 31.4408 45.184 31.8196 46.1572 32.5287C47.1309 33.2231 47.8606 34.1805 48.3463 35.4009C48.8472 36.6071 49.07 38.0017 49.0147 39.5847C48.9594 41.1678 48.6396 42.5508 48.0553 43.7338C47.4862 44.9026 46.6915 45.8068 45.6712 46.4462C44.6514 47.071 43.4453 47.3591 42.0528 47.3105ZM42.1258 45.2217C42.9613 45.2509 43.7097 45.0422 44.371 44.5957C45.047 44.1497 45.5835 43.4934 45.9807 42.6267C46.3778 41.76 46.5977 40.7184 46.6401 39.5018C46.6826 38.2852 46.536 37.2308 46.2003 36.3385C45.8645 35.4463 45.3751 34.7541 44.7318 34.262C44.1033 33.7704 43.3713 33.5101 42.5358 33.4809C41.6856 33.4512 40.9299 33.6596 40.2686 34.1062C39.6072 34.5527 39.078 35.2093 38.6809 36.0759C38.2837 36.9426 38.0639 37.9842 38.0214 39.2008C37.9789 40.4174 38.1255 41.4719 38.4613 42.3641C38.797 43.2564 39.2791 43.9483 39.9077 44.4399C40.5363 44.9314 41.2756 45.1921 42.1258 45.2217ZM57.2508 47.8412C55.8583 47.7926 54.6679 47.4208 53.6796 46.7259C52.7064 46.0168 51.9694 45.0592 51.4685 43.853C50.9828 42.6326 50.7676 41.2309 50.8229 39.6479C50.8781 38.0648 51.1903 36.6889 51.7595 35.52C52.3438 34.3371 53.1458 33.4332 54.1656 32.8084C55.2005 32.1694 56.4142 31.8743 57.8067 31.9229C59.1992 31.9715 60.382 32.3504 61.3552 33.0594C62.3289 33.7538 63.0586 34.7112 63.5443 35.9316C64.0452 37.1378 64.268 38.5324 64.2127 40.1155C64.1574 41.6985 63.8376 43.0815 63.2533 44.2645C62.6842 45.4334 61.8895 46.3375 60.8692 46.977C59.8494 47.6017 58.6433 47.8898 57.2508 47.8412ZM57.3238 45.7525C58.1593 45.7816 58.9077 45.573 59.569 45.1264C60.245 44.6804 60.7815 44.0241 61.1787 43.1574C61.5758 42.2908 61.7957 41.2491 61.8381 40.0325C61.8806 38.8159 61.734 37.7615 61.3983 36.8693C61.0625 35.977 60.5731 35.2848 59.9298 34.7927C59.3013 34.3012 58.5693 34.0408 57.7338 34.0116C56.8836 33.9819 56.1279 34.1904 55.4666 34.6369C54.8052 35.0834 54.276 35.74 53.8789 36.6067C53.4817 37.4733 53.2619 38.515 53.2194 39.7316C53.1769 40.9482 53.3235 42.0026 53.6593 42.8948C53.995 43.7871 54.4771 44.479 55.1057 44.9706C55.7343 45.4622 56.4736 45.7228 57.3238 45.7525ZM66.2488 42.476L66.3172 40.5191L70.4726 40.6643L70.6085 36.7726L72.6313 36.8433L72.4954 40.7349L76.6509 40.88L76.5825 42.8368L72.4271 42.6917L72.2904 46.6053L70.2676 46.5347L70.4043 42.6211L66.2488 42.476Z" fill="#03413F"/>
<path d="M27.083 67.5364L30.4703 59.2495L31.5376 59.2868L34.3266 67.7893L33.2593 67.7521L32.5671 65.5666L28.9933 65.4418L28.1384 67.5732L27.083 67.5364ZM29.3216 64.6367L32.2958 64.7406L30.9536 60.5392L29.3216 64.6367ZM37.6762 68.0504C37.1085 68.0306 36.6013 67.8848 36.1545 67.613C35.716 67.3335 35.3729 66.9573 35.1253 66.4844C34.8859 66.0038 34.7771 65.4516 34.7989 64.828C34.8206 64.2044 34.9676 63.6652 35.2396 63.2104C35.5199 62.7479 35.8884 62.3966 36.345 62.1563C36.81 61.9084 37.3263 61.7944 37.8939 61.8142C38.5975 61.8388 39.1827 62.0433 39.6496 62.4278C40.1244 62.8126 40.4151 63.3151 40.5215 63.9352L39.4901 63.8992C39.423 63.5286 39.2371 63.2379 38.9322 63.0272C38.6277 62.8084 38.2675 62.6918 37.8518 62.6772C37.516 62.6655 37.1973 62.7384 36.8956 62.896C36.5939 63.0536 36.3452 63.297 36.1496 63.6264C35.954 63.9558 35.8475 64.3683 35.8302 64.864C35.8129 65.3597 35.8904 65.7787 36.0625 66.1209C36.2347 66.4631 36.4656 66.7273 36.7553 66.9136C37.0452 67.0918 37.3581 67.1868 37.6939 67.1985C38.1096 67.213 38.4769 67.1258 38.7957 66.9368C39.1148 66.7398 39.3208 66.4548 39.4139 66.0818L40.4453 66.1179C40.3044 66.7133 39.9836 67.1904 39.4828 67.5491C38.9819 67.9079 38.3797 68.075 37.6762 68.0504ZM43.7332 68.1178C43.1895 68.0988 42.7664 67.952 42.4638 67.6772C42.1612 67.4025 42.0219 66.9214 42.0459 66.2338L42.1602 62.9598L41.1289 62.9238L41.1586 62.0723L42.19 62.1083L42.3717 60.6858L43.2472 60.7163L43.1974 62.1435L44.9483 62.2046L44.9186 63.0561L43.1676 62.995L43.0533 66.269C43.0402 66.6447 43.1072 66.9032 43.2544 67.0445C43.4018 67.1777 43.6674 67.251 44.0512 67.2644L44.6748 67.2862L44.6446 68.1496L43.7332 68.1178ZM46.646 60.9431C46.4461 60.9361 46.2804 60.8663 46.149 60.7336C46.0258 60.5932 45.9677 60.4231 45.9747 60.2232C45.9814 60.0314 46.0509 59.8737 46.1833 59.7502C46.3237 59.6271 46.4938 59.569 46.6937 59.5759C46.8856 59.5826 47.0473 59.6523 47.1787 59.785C47.3102 59.9177 47.3725 60.0799 47.3658 60.2718C47.3589 60.4717 47.285 60.6372 47.1444 60.7684C47.004 60.8916 46.8379 60.9498 46.646 60.9431ZM45.8885 68.1931L46.0962 62.2447L47.1036 62.2799L46.8959 68.2283L45.8885 68.1931ZM50.125 68.341L48.0781 62.3139L49.1335 62.3508L50.7466 67.3901L52.7193 62.476L53.7506 62.512L51.2883 68.3817L50.125 68.341ZM56.789 68.7178C56.2214 68.698 55.7222 68.5525 55.2914 68.2813C54.8608 68.0021 54.5258 67.6262 54.2861 67.1535C54.0545 66.6812 53.9497 66.1292 53.9717 65.4975C53.9935 64.8739 54.1364 64.3346 54.4004 63.8795C54.6648 63.4165 55.0213 63.0647 55.4699 62.8242C55.9269 62.576 56.4472 62.4621 57.0308 62.4825C57.6064 62.5026 58.0975 62.6518 58.5041 62.9302C58.9189 63.2008 59.2308 63.5519 59.4399 63.9835C59.6489 64.415 59.745 64.8746 59.7279 65.3623C59.7249 65.4503 59.7178 65.5381 59.7067 65.6258C59.7037 65.7137 59.7002 65.8137 59.6963 65.9256L54.9591 65.7602C54.9672 66.2167 55.0579 66.6001 55.2312 66.9104C55.4127 67.2129 55.6408 67.445 55.9153 67.6067C56.1978 67.7686 56.499 67.8552 56.8188 67.8663C57.2345 67.8809 57.5857 67.7971 57.8722 67.615C58.1587 67.4328 58.3717 67.1801 58.511 66.8568L59.5064 66.8916C59.3273 67.4376 59.0034 67.8866 58.5348 68.2385C58.0745 68.5826 57.4926 68.7424 56.789 68.7178ZM56.9771 63.3331C56.4974 63.3164 56.0645 63.4493 55.6784 63.732C55.3005 64.007 55.0739 64.4234 54.9984 64.9811L58.7401 65.1117C58.7348 64.5752 58.5656 64.149 58.2324 63.8332C57.8992 63.5174 57.4808 63.3507 56.9771 63.3331ZM67.3784 69.0876C66.5549 69.0589 65.8496 68.8541 65.2625 68.4734C64.6837 68.085 64.2418 67.5612 63.9366 66.9022C63.6317 66.2351 63.4943 65.4699 63.5244 64.6064C63.5543 63.7509 63.7445 63.0051 64.0949 62.3689C64.4456 61.7248 64.9232 61.2291 65.5276 60.882C66.1401 60.5352 66.8581 60.3762 67.6816 60.4049C68.641 60.4384 69.4124 60.6975 69.9959 61.1821C70.5876 61.6591 70.953 62.3122 71.0922 63.1416L69.9769 63.1027C69.8671 62.5785 69.6178 62.1535 69.2289 61.8278C68.8483 61.4943 68.3222 61.3158 67.6506 61.2924C67.051 61.2714 66.5224 61.3931 66.0649 61.6572C65.6077 61.9134 65.2461 62.2971 64.9801 62.8081C64.7224 63.3114 64.5809 63.9228 64.5558 64.6424C64.5307 65.362 64.629 65.9858 64.8507 66.5138C65.0807 67.0342 65.4146 67.4421 65.8526 67.7375C66.2908 68.025 66.8098 68.1792 67.4094 68.2002C68.081 68.2236 68.618 68.0903 69.0203 67.8001C69.431 67.5023 69.7092 67.0997 69.855 66.5925L70.9703 66.6315C70.7742 67.4331 70.3644 68.0512 69.7408 68.4857C69.1253 68.9205 68.3378 69.1211 67.3784 69.0876ZM72.8987 61.8599C72.6988 61.8529 72.5332 61.7831 72.4017 61.6504C72.2786 61.51 72.2205 61.3399 72.2274 61.14C72.2341 60.9481 72.3037 60.7905 72.4361 60.667C72.5765 60.5438 72.7466 60.4857 72.9465 60.4927C73.1384 60.4994 73.3 60.5691 73.4315 60.7018C73.5629 60.8344 73.6253 60.9967 73.6186 61.1886C73.6116 61.3885 73.5378 61.554 73.3971 61.6852C73.2567 61.8083 73.0906 61.8666 72.8987 61.8599ZM72.1412 69.1099L72.349 63.1615L73.3564 63.1967L73.1486 69.145L72.1412 69.1099ZM74.6628 69.1979L74.8705 63.2495L75.782 63.2814L75.8261 64.4236C76.0237 64.0383 76.3144 63.7362 76.6983 63.5175C77.0822 63.2987 77.5499 63.199 78.1016 63.2183L78.0647 64.2736L77.7889 64.264C77.4371 64.2517 77.1111 64.3044 76.8108 64.422C76.5108 64.5316 76.2677 64.7312 76.0814 65.0209C75.8952 65.3105 75.793 65.7152 75.7749 66.2349L75.6702 69.2331L74.6628 69.1979ZM81.2865 69.5733C80.7188 69.5535 80.2116 69.4077 79.7648 69.1359C79.3263 68.8565 78.9832 68.4802 78.7355 68.0073C78.4962 67.5267 78.3874 66.9745 78.4092 66.3509C78.4309 65.7273 78.5778 65.1881 78.8499 64.7333C79.1302 64.2708 79.4987 63.9195 79.9553 63.6793C80.4203 63.4313 80.9366 63.3173 81.5042 63.3371C82.2078 63.3617 82.793 63.5662 83.2599 63.9507C83.7347 64.3355 84.0254 64.838 84.1318 65.4581L83.1004 65.4221C83.0333 65.0515 82.8474 64.7608 82.5425 64.5501C82.238 64.3313 81.8778 64.2147 81.4621 64.2002C81.1263 64.1884 80.8075 64.2613 80.5059 64.4189C80.2042 64.5765 79.9555 64.82 79.7599 65.1493C79.5643 65.4787 79.4578 65.8912 79.4405 66.3869C79.4232 66.8826 79.5006 67.3016 79.6728 67.6438C79.845 67.986 80.0759 68.2502 80.3656 68.4365C80.6555 68.6147 80.9684 68.7097 81.3042 68.7214C81.7199 68.7359 82.0872 68.6487 82.406 68.4597C82.7251 68.2627 82.9311 67.9777 83.0242 67.6047L84.0556 67.6408C83.9147 68.2362 83.5939 68.7133 83.093 69.072C82.5922 69.4308 81.99 69.5979 81.2865 69.5733ZM85.1569 69.5644L85.4584 60.9296L86.4658 60.9648L86.1643 69.5995L85.1569 69.5644ZM90.2449 69.8861C89.6772 69.8663 89.178 69.7208 88.7472 69.4496C88.3167 69.1704 87.9816 68.7945 87.742 68.3218C87.5103 67.8495 87.4055 67.2975 87.4276 66.6658C87.4493 66.0422 87.5923 65.5029 87.8563 65.0478C88.1206 64.5848 88.4771 64.233 88.9258 63.9925C89.3827 63.7443 89.903 63.6304 90.4867 63.6508C91.0623 63.6709 91.5534 63.8201 91.9599 64.0985C92.3747 64.3691 92.6867 64.7202 92.8957 65.1518C93.1048 65.5833 93.2008 66.043 93.1838 66.5307C93.1807 66.6186 93.1737 66.7064 93.1626 66.7941C93.1595 66.882 93.156 66.982 93.1521 67.0939L88.415 66.9285C88.4231 67.385 88.5138 67.7684 88.687 68.0787C88.8686 68.3812 89.0966 68.6133 89.3711 68.775C89.6537 68.9369 89.9548 69.0235 90.2746 69.0347C90.6904 69.0492 91.0415 68.9654 91.328 68.7833C91.6146 68.6012 91.8275 68.3484 91.9669 68.0251L92.9623 68.0599C92.7831 68.6059 92.4593 69.0549 91.9907 69.4068C91.5304 69.7509 90.9485 69.9107 90.2449 69.8861ZM90.4329 64.5014C89.9532 64.4847 89.5203 64.6176 89.1342 64.9003C88.7564 65.1753 88.5297 65.5917 88.4542 66.1494L92.1959 66.28C92.1907 65.7435 92.0214 65.3173 91.6882 65.0015C91.3551 64.6857 90.9366 64.519 90.4329 64.5014ZM96.4372 70.1024C95.7256 70.0775 95.1402 69.877 94.6811 69.5007C94.2219 69.1245 93.9631 68.6271 93.9047 68.0087L94.936 68.0447C94.9891 68.3588 95.1435 68.6363 95.3993 68.8774C95.6633 69.1108 96.0232 69.2354 96.4789 69.2513C96.9026 69.2661 97.2175 69.189 97.4235 69.0201C97.6298 68.8432 97.7373 68.6308 97.746 68.383C97.7585 68.0232 97.635 67.7788 97.3753 67.6496C97.1237 67.5208 96.7637 67.4001 96.2953 67.2877C95.9777 67.2126 95.6611 67.1095 95.3455 66.9784C95.0299 66.8473 94.7679 66.67 94.5596 66.4466C94.3515 66.2152 94.2538 65.9196 94.2664 65.5598C94.2845 65.0402 94.4912 64.6231 94.8864 64.3087C95.2899 63.9866 95.8234 63.8371 96.487 63.8603C97.1186 63.8824 97.6287 64.0603 98.0173 64.394C98.4142 64.7201 98.6344 65.1761 98.678 65.7619L97.6826 65.7272C97.6532 65.422 97.5296 65.1815 97.3116 65.0058C97.1018 64.8224 96.8131 64.7242 96.4453 64.7114C96.0855 64.6988 95.803 64.765 95.5979 64.9099C95.4007 65.0551 95.2977 65.2517 95.2891 65.4995C95.2807 65.7394 95.3981 65.9316 95.6412 66.0761C95.8923 66.221 96.232 66.3489 96.6604 66.4599C97.0254 66.5527 97.3697 66.6648 97.6933 66.7962C98.0252 66.9199 98.291 67.1012 98.4908 67.3404C98.6988 67.5718 98.7953 67.9033 98.7803 68.3351C98.7695 68.871 98.5502 69.3076 98.1221 69.6449C97.7024 69.9744 97.1407 70.1269 96.4372 70.1024Z" fill="black"/>
<path d="M198.581 58.5747C201.297 58.5747 203.499 56.3731 203.499 53.6572C203.499 50.9414 201.297 48.7397 198.581 48.7397C195.866 48.7397 193.664 50.9414 193.664 53.6572C193.664 56.3731 195.866 58.5747 198.581 58.5747Z" stroke="#03413F" stroke-width="2.625" stroke-linecap="round" stroke-linejoin="round"/>
<path d="M207.664 69.8973C207.664 65.8198 203.604 62.4948 198.581 62.4948C193.559 62.4948 189.499 65.8023 189.499 69.8973" stroke="#03413F" stroke-width="2.625" stroke-linecap="round" stroke-linejoin="round"/>
<path d="M215.276 56.4222C215.276 65.6097 207.839 73.0472 198.651 73.0472C189.464 73.0472 182.026 65.6097 182.026 56.4222C182.026 47.2347 189.464 39.7972 198.651 39.7972C200.944 39.7972 203.131 40.2522 205.126 41.0922C204.899 41.7922 204.776 42.5272 204.776 43.2972C204.776 44.6097 205.144 45.8522 205.791 46.9022C206.141 47.4972 206.596 48.0397 207.121 48.4947C208.346 49.6147 209.974 50.2972 211.776 50.2972C212.546 50.2972 213.281 50.1747 213.964 49.9297C214.804 51.9247 215.276 54.1297 215.276 56.4222Z" stroke="#03413F" stroke-width="2.625" stroke-linecap="round" stroke-linejoin="round"/>
<path d="M218.776 43.2972C218.776 43.8572 218.706 44.3997 218.566 44.9247C218.409 45.6247 218.129 46.3072 217.761 46.9022C216.921 48.3197 215.574 49.4222 213.964 49.9297C213.281 50.1747 212.546 50.2972 211.776 50.2972C209.974 50.2972 208.346 49.6147 207.121 48.4947C206.596 48.0397 206.141 47.4972 205.791 46.9022C205.144 45.8522 204.776 44.6097 204.776 43.2972C204.776 42.5272 204.899 41.7922 205.126 41.0922C205.459 40.0772 206.019 39.1673 206.754 38.4148C208.031 37.1023 209.816 36.2972 211.776 36.2972C213.841 36.2972 215.714 37.1898 216.974 38.6248C218.094 39.8673 218.776 41.5122 218.776 43.2972Z" stroke="#03413F" stroke-width="2.625" stroke-miterlimit="10" stroke-linecap="round" stroke-linejoin="round"/>
<path d="M214.384 43.2622H209.169" stroke="#03413F" stroke-width="2.625" stroke-miterlimit="10" stroke-linecap="round" stroke-linejoin="round"/>
<path d="M211.776 40.7073V45.9398" stroke="#03413F" stroke-width="2.625" stroke-miterlimit="10" stroke-linecap="round" stroke-linejoin="round"/>
</g>
<defs>
<filter id="filter0_dd_108_693" x="-0.274231" y="-0.274231" width="249.133" height="106.388" filterUnits="userSpaceOnUse" color-interpolation-filters="sRGB">
<feFlood flood-opacity="0" result="BackgroundImageFix"/>
<feColorMatrix in="SourceAlpha" type="matrix" values="0 0 0 0 0 0 0 0 0 0 0 0 0 0 0 0 0 0 127 0" result="hardAlpha"/>
<feMorphology radius="2" operator="dilate" in="SourceAlpha" result="effect1_dropShadow_108_693"/>
<feOffset/>
<feComposite in2="hardAlpha" operator="out"/>
<feColorMatrix type="matrix" values="0 0 0 0 1 0 0 0 0 1 0 0 0 0 1 0 0 0 0.4 0"/>
<feBlend mode="normal" in2="BackgroundImageFix" result="effect1_dropShadow_108_693"/>
<feColorMatrix in="SourceAlpha" type="matrix" values="0 0 0 0 0 0 0 0 0 0 0 0 0 0 0 0 0 0 127 0" result="hardAlpha"/>
<feOffset dy="0.4"/>
<feGaussianBlur stdDeviation="0.4"/>
<feComposite in2="hardAlpha" operator="out"/>
<feColorMatrix type="matrix" values="0 0 0 0 0 0 0 0 0 0 0 0 0 0 0 0 0 0 0.04 0"/>
<feBlend mode="normal" in2="effect1_dropShadow_108_693" result="effect2_dropShadow_108_693"/>
<feBlend mode="normal" in="SourceGraphic" in2="effect2_dropShadow_108_693" result="shape"/>
</filter>
</defs>
</svg>
