<svg width="588" height="170" viewBox="0 0 588 170" fill="none" xmlns="http://www.w3.org/2000/svg">
<path d="M101.6 -1.90735e-05H164.4L266 280H207.4L190.6 233.6H75.4L58.6 280H1.13249e-06L101.6 -1.90735e-05ZM95.6 178.4H170.4L132.8 75.8L95.6 178.4ZM264.875 380V324.8C271.675 324.8 277.875 323.133 283.475 319.8C289.075 316.6 293.542 312.2 296.875 306.6C300.208 301 301.875 294.8 301.875 288V80H357.075V288C357.075 304.933 352.942 320.333 344.675 334.2C336.542 348.067 325.475 359.133 311.475 367.4C297.608 375.8 282.075 380 264.875 380ZM329.875 57C321.875 57 315.142 54.3333 309.675 49C304.208 43.6667 301.475 37.0667 301.475 29.2C301.475 21.3333 304.208 14.7333 309.675 9.39999C315.142 4.06666 321.808 1.4 329.675 1.4C337.542 1.4 344.142 4.06666 349.475 9.39999C354.942 14.7333 357.675 21.3333 357.675 29.2C357.675 37.0667 355.008 43.6667 349.675 49C344.475 54.3333 337.875 57 329.875 57ZM487.797 285.2C469.397 285.2 452.597 280.467 437.397 271C422.33 261.533 410.264 248.867 401.197 233C392.264 217 387.797 199.333 387.797 180C387.797 165.333 390.397 151.667 395.597 139C400.797 126.2 407.93 115 416.997 105.4C426.197 95.6667 436.864 88.0667 448.997 82.6C461.13 77.1333 474.064 74.4 487.797 74.4C506.197 74.4 522.93 79.1333 537.997 88.6C553.197 98.0667 565.264 110.8 574.197 126.8C583.264 142.8 587.797 160.533 587.797 180C587.797 194.533 585.197 208.133 579.997 220.8C574.797 233.467 567.597 244.667 558.397 254.4C549.33 264 538.73 271.533 526.597 277C514.597 282.467 501.664 285.2 487.797 285.2ZM487.797 230C496.33 230 503.997 227.733 510.797 223.2C517.597 218.533 522.93 212.4 526.797 204.8C530.664 197.2 532.597 188.933 532.597 180C532.597 170.8 530.53 162.4 526.397 154.8C522.397 147.067 516.997 140.933 510.197 136.4C503.397 131.867 495.93 129.6 487.797 129.6C479.397 129.6 471.797 131.933 464.997 136.6C458.197 141.267 452.797 147.4 448.797 155C444.93 162.6 442.997 170.933 442.997 180C442.997 189.467 444.997 198 448.997 205.6C453.13 213.067 458.597 219 465.397 223.4C472.197 227.8 479.664 230 487.797 230Z" fill="url(#paint0_linear_108_975)" fill-opacity="0.3"/>
<defs>
<linearGradient id="paint0_linear_108_975" x1="292" y1="-100" x2="292" y2="380" gradientUnits="userSpaceOnUse">
<stop stop-color="#024E44"/>
<stop offset="0.650844" stop-color="#CBEB6D" stop-opacity="0"/>
</linearGradient>
</defs>
</svg>
