<svg width="135" height="11" viewBox="0 0 135 11" fill="none" xmlns="http://www.w3.org/2000/svg">
<path d="M4.65361 0.214734L2.00635 1.17122C1.54027 1.33963 1.15331 1.67507 0.920472 2.11253L0.234482 3.40139C-0.104694 4.03864 -0.0741333 4.80922 0.314444 5.41762L0.692417 6.00941C1.05985 6.5847 1.69534 6.93286 2.37796 6.93286H3.51765H5.76439C6.17284 6.93286 6.57149 7.05792 6.90675 7.29121L8.33836 8.28742C8.91396 8.68796 9.6573 8.75778 10.2974 8.47142L13.347 7.10721C13.604 6.99227 13.8823 6.93286 14.1637 6.93286H17.8883H20.681C20.9455 6.93286 21.2075 6.98534 21.4516 7.08727L25.2136 8.65796C25.6394 8.83574 26.1135 8.86082 26.5557 8.72895L32.062 7.08681C32.4002 6.98598 32.7589 6.97638 33.102 7.05901L40.6504 8.87725C40.8038 8.91419 40.961 8.93286 41.1188 8.93286H47.2309C47.4668 8.93286 47.7009 8.9746 47.9223 9.05616L52.3036 10.6702C52.7628 10.8394 53.2682 10.8343 53.724 10.6559L57.7745 9.07045C58.0068 8.97953 58.2537 8.93175 58.5031 8.9373C59.5417 8.96039 61.1877 9.0797 61.6389 9.43286C62.1008 9.79452 66.7747 8.27595 69.7121 7.24239C70.2642 7.04811 70.8736 7.09965 71.3822 7.38926L73.1039 8.36947C73.7173 8.71874 74.4695 8.71874 75.083 8.36947L76.6942 7.45213C77.2653 7.12698 77.9597 7.10314 78.5518 7.38837L81.3464 8.73467C81.6171 8.86512 81.9138 8.93286 82.2144 8.93286H89.755C89.9577 8.93286 90.1592 8.90205 90.3526 8.84147L96.1559 7.02425C96.3493 6.96368 96.5508 6.93286 96.7535 6.93286H104.294C104.595 6.93286 104.891 7.0006 105.162 7.13105L107.908 8.45388C108.527 8.75201 109.255 8.71169 109.838 8.34709L110.906 7.67774C111.62 7.23069 112.538 7.27875 113.201 7.79793L113.728 8.21075C114.298 8.65672 115.064 8.76027 115.732 8.48152L118.735 7.22747C119.189 7.03776 119.698 7.02233 120.163 7.18413L124.373 8.64884C124.894 8.83009 125.466 8.78815 125.955 8.53296L128.586 7.15981C128.872 7.01072 129.189 6.93286 129.512 6.93286H133.538C134.517 6.93286 134.915 5.67274 134.117 5.10489C133.62 4.75118 133.551 4.03772 133.973 3.59722C134.487 3.06138 134.258 2.17275 133.55 1.951L132.227 1.53685C132.008 1.46812 131.778 1.44071 131.548 1.456L117.929 2.36334C117.276 2.40689 116.642 2.12756 116.233 1.6156L116.209 1.58464C115.662 0.899727 114.733 0.650612 113.917 0.970062L110.889 2.15518C110.449 2.32727 109.952 2.25429 109.58 1.96326C109.167 1.6403 108.604 1.58856 108.139 1.83097L108.034 1.88603C107.418 2.20766 106.662 2.07002 106.198 1.55182L105.573 0.851947C105.069 0.288457 104.29 0.0571821 103.56 0.254185L96.5881 2.13636C95.9515 2.30819 95.283 2.00143 94.9982 1.40681C94.7247 0.835791 94.0949 0.527171 93.476 0.660825L86.6246 2.14045C86.083 2.25741 85.6488 1.69271 85.9008 1.19933C86.1558 0.700402 85.7093 0.131813 85.1642 0.261136L77.1234 2.16862C76.4333 2.33232 75.7082 2.11834 75.2175 1.60622L74.9997 1.37883C74.4493 0.804323 73.6107 0.610691 72.8641 0.885725L70.0635 1.91747C69.2653 2.21154 68.3732 1.86273 67.9861 1.10521C67.6343 0.416707 66.8582 0.057089 66.1055 0.233862L61.3497 1.35077C61.1185 1.40506 60.8795 1.41775 60.6439 1.38824L53.7777 0.528208C53.2876 0.466824 52.7922 0.588946 52.3868 0.871053L50.9864 1.84551C50.4567 2.21414 49.7816 2.30449 49.1736 2.08812L43.8923 0.208859C43.3955 0.0320571 42.8489 0.0586565 42.3716 0.282869L40.6093 1.11061C40.1886 1.30823 39.6924 1.25216 39.3264 0.965622L39.169 0.842435C38.855 0.596624 38.4207 0.573871 38.0827 0.785528L37.5118 1.14309C37.2773 1.28996 36.9672 1.17639 36.883 0.912794C36.803 0.662172 36.5164 0.544237 36.2831 0.665963L35.6046 1.02011C35.2446 1.20798 34.8137 0.946824 34.8137 0.540767C34.8137 0.217156 34.5313 -0.0339826 34.2099 0.00375873L22.652 1.36098C22.2531 1.40781 21.8494 1.33349 21.4934 1.14768L20.673 0.719549C20.3152 0.532802 19.9093 0.45869 19.5085 0.506953L12.2525 1.38086C12.0228 1.40851 11.8207 1.22925 11.8207 0.997967C11.8207 0.726348 11.5474 0.539836 11.2945 0.63884L9.92292 1.17569C9.60713 1.2993 9.26591 1.06643 9.26591 0.727303C9.26591 0.365695 8.88219 0.133123 8.56161 0.300431L7.23429 0.993156C6.75754 1.24197 6.1697 1.08515 5.88023 0.631932C5.61917 0.223199 5.10973 0.0499282 4.65361 0.214734Z" fill="#D3EE83"/>
</svg>
