<svg width="105" height="30" viewBox="0 0 105 30" fill="none" xmlns="http://www.w3.org/2000/svg">
<path d="M50.6364 11.6595C52.8252 9.35745 56.5221 9.23751 58.7698 10.4613C59.4095 10.81 60.0058 11.2242 60.4556 11.7939C60.741 12.1537 60.8698 12.0671 61.1563 11.8039C63.4973 9.66059 66.238 9.13201 69.1831 10.1526C71.5362 10.9688 72.5679 12.9288 72.9433 15.2853C73.0297 15.9078 73.0668 16.536 73.0543 17.1643C73.0543 21.1222 73.0443 25.0801 73.0621 29.0379C73.0621 29.4566 72.9588 29.5576 72.5468 29.5487C71.1231 29.521 69.6983 29.5188 68.2747 29.5487C67.7883 29.5587 67.625 29.4577 67.6295 28.9269C67.6561 25.321 67.6439 21.7152 67.6428 18.1083C67.6552 17.6646 67.6179 17.221 67.5317 16.7856C67.2297 15.453 66.4212 14.6468 65.2752 14.5402C63.8182 14.4036 62.61 15.0799 62.0825 16.3292C61.9324 16.6866 61.8568 17.071 61.8604 17.4586C61.8681 21.3054 61.8604 25.1522 61.8737 28.999C61.8737 29.4177 61.7904 29.5543 61.3406 29.5487C59.8614 29.5176 58.38 29.5232 56.8986 29.5487C56.5055 29.5554 56.4111 29.4377 56.4122 29.0557C56.4277 25.4687 56.4222 21.8807 56.4189 18.2926C56.4358 17.7935 56.4004 17.294 56.3134 16.8023C56.0802 15.6829 55.5282 14.8167 54.3544 14.5813C53.1329 14.3414 52.0368 14.6579 51.245 15.6918C50.8406 16.2018 50.6245 16.8356 50.6331 17.4864C50.6475 21.3332 50.6331 25.18 50.6498 29.0268C50.6498 29.4299 50.5709 29.5565 50.1422 29.5476C48.663 29.5176 47.1827 29.5243 45.7002 29.5476C45.3426 29.5476 45.2316 29.4644 45.2316 29.0923C45.2442 22.9157 45.2442 16.7386 45.2316 10.5612C45.2316 10.1936 45.3426 10.0993 45.7002 10.1048C47.1983 10.1248 48.6986 10.127 50.1944 10.1048C50.5753 10.0982 50.6708 10.2236 50.6386 10.5723C50.6142 10.8988 50.6364 11.232 50.6364 11.6595Z" fill="#333333"/>
<path d="M14.1995 10.9654C14.2584 10.1203 14.2584 10.1203 15.1068 10.1203C16.4394 10.1203 17.772 10.1303 19.1046 10.1136C19.4433 10.1136 19.5855 10.168 19.5855 10.5578C19.5722 16.7523 19.5722 22.9467 19.5855 29.1411C19.5855 29.562 19.4267 29.6164 19.0691 29.612C17.6821 29.5942 16.2928 29.5731 14.908 29.6198C14.3361 29.6397 14.1307 29.4754 14.2284 28.9212C14.2318 28.8314 14.2236 28.7414 14.204 28.6536C8.80466 31.17 3.87621 28.6536 1.80399 25.6619C-0.72797 22.0083 -0.590267 16.9299 2.18934 13.4729C4.668 10.3868 9.4332 8.63222 14.1995 10.9654ZM9.74304 15.1753C7.17331 15.1565 5.14774 17.1743 5.13775 19.7684C5.12775 22.3781 7.11335 24.4092 9.68529 24.4203C12.2017 24.4314 14.1929 22.437 14.2173 19.8795C14.2428 17.2365 12.2994 15.1942 9.74304 15.1753Z" fill="#333333"/>
<path d="M35.7168 27.7785C34.7316 28.7914 33.4729 29.4956 32.0943 29.8052C29.318 30.4426 26.4307 29.4831 24.9471 27.4054C24.105 26.2165 23.6575 24.7933 23.6678 23.3365C23.6289 19.0466 23.6522 14.7556 23.6411 10.4657C23.6411 10.1658 23.7333 10.097 24.0187 10.0992C25.5534 10.1125 27.0892 10.1247 28.624 10.0936C29.0937 10.0836 29.0593 10.3257 29.0582 10.6389C29.0537 14.2665 29.0537 17.8913 29.0582 21.513C29.0465 21.901 29.0718 22.2892 29.1337 22.6724C29.4813 24.4337 30.7262 25.311 32.5641 25.1155C34.3753 24.9278 35.6568 23.6185 35.6568 21.9539C35.6568 18.1782 35.6646 14.4091 35.6468 10.6355C35.6468 10.1991 35.7579 10.0803 36.1932 10.0903C37.6535 10.1181 39.1161 10.1147 40.5775 10.0903C40.9684 10.0836 41.1106 10.1514 41.1094 10.5911C41.0932 16.75 41.0932 22.9086 41.1094 29.0667C41.1094 29.4121 41.045 29.5409 40.6652 29.5342C39.1672 29.5109 37.6669 29.5131 36.1699 29.5342C35.8056 29.5342 35.6857 29.4398 35.7146 29.0756C35.7412 28.7025 35.7168 28.3149 35.7168 27.7785Z" fill="#333333"/>
<path d="M82.4027 11.8671C84.969 9.28624 88.7092 9.25182 91.0646 10.4323C93.0047 11.4062 93.9864 13.0642 94.3729 15.1364C94.4732 15.7194 94.519 16.3106 94.5094 16.9021C94.5094 20.9333 94.5017 24.9644 94.5172 28.9956C94.5172 29.412 94.4373 29.5575 93.9853 29.5508C92.525 29.5186 91.0624 29.5242 89.6021 29.5508C89.2112 29.5575 89.1157 29.4498 89.1168 29.0633C89.1324 25.4209 89.1268 21.7773 89.1257 18.1348C89.1257 17.484 89.0624 16.8422 88.7925 16.2414C88.1429 14.821 86.5271 14.2258 84.8336 14.7144C83.6053 15.0698 82.3538 16.398 82.3904 18.0193C82.466 21.6784 82.4071 25.3409 82.4238 29.0023C82.4238 29.4209 82.3405 29.5631 81.8907 29.5575C80.4115 29.5253 78.9312 29.5342 77.4487 29.5575C77.1011 29.5575 77.0211 29.462 77.0222 29.1255C77.0326 22.9311 77.0326 16.7363 77.0222 10.5411C77.0222 10.1913 77.1266 10.1113 77.4609 10.1158C78.9778 10.1336 80.4948 10.1313 82.014 10.1158C82.3227 10.1158 82.4393 10.1946 82.4193 10.5145C82.3827 10.9209 82.4027 11.3429 82.4027 11.8671Z" fill="#333333"/>
<path d="M98.4752 19.7828C98.4752 16.77 98.4918 13.7561 98.4596 10.7422C98.4529 10.1869 98.6173 10.0847 99.1259 10.0992C100.512 10.1369 101.902 10.1303 103.286 10.0992C103.73 10.0892 103.879 10.1769 103.878 10.6544C103.859 16.7748 103.859 22.8945 103.878 29.0134C103.878 29.4121 103.805 29.552 103.368 29.5431C101.927 29.5113 100.483 29.5113 99.0371 29.5431C98.5929 29.552 98.4507 29.4642 98.4552 28.9878C98.4874 25.9195 98.4752 22.85 98.4752 19.7828Z" fill="#333333"/>
<path d="M98.2608 2.93083C98.2719 1.27506 99.6112 -0.0186747 101.295 0.000203997C102.086 0.0131632 102.839 0.339734 103.389 0.908079C103.939 1.47642 104.241 2.23996 104.228 3.03077C104.215 3.82157 103.888 4.57483 103.32 5.12485C102.751 5.67487 101.988 5.9766 101.197 5.96364C99.5168 5.93366 98.2497 4.62547 98.2608 2.93083Z" fill="#333333"/>
</svg>
