<svg width="192" height="33" viewBox="0 0 192 33" fill="none" xmlns="http://www.w3.org/2000/svg">
<path d="M86.4729 14.0961C86.4657 17.7331 86.4586 21.3697 86.4514 25.0059C86.4514 26.0697 86.4434 26.0778 85.3622 26.0778C84.5811 26.0778 83.8 26.0671 83.0189 26.0778C82.5191 26.0858 82.2941 25.8889 82.2941 25.365C82.303 19.5182 82.303 13.6722 82.2941 7.82717C82.2941 7.27651 82.5084 7.0742 83.0497 7.0876C84.076 7.11172 85.1036 7.11708 86.1312 7.0876C86.6671 7.07018 86.9887 7.26847 87.2647 7.72132C88.6138 9.9293 89.9885 12.1226 91.3577 14.3185C91.8186 15.0567 91.828 15.0554 92.2889 14.3185C93.6448 12.14 95.014 9.96951 96.3404 7.77359C96.6472 7.26849 96.9956 7.06345 97.5797 7.08891C98.5176 7.1291 99.4554 7.08895 100.393 7.10101C101.282 7.10101 101.303 7.12374 101.304 7.99327C101.304 11.3168 101.304 14.6414 101.304 17.9667C101.304 20.3985 101.287 22.8315 101.316 25.2632C101.316 25.8795 101.109 26.1086 100.513 26.0899C99.6872 26.0631 98.8606 26.0564 98.0366 26.0899C97.3774 26.1194 97.1389 25.8889 97.1456 25.2056C97.1738 21.7476 97.1577 18.2896 97.1577 14.8303V14.0063C96.7558 14.1885 96.6647 14.4792 96.5106 14.711C95.119 16.8127 93.731 18.9175 92.3465 21.0254C91.7784 21.8856 91.7664 21.8775 91.2117 21.0415C89.6701 18.7192 88.1239 16.3969 86.5734 14.0746L86.5224 14.0492L86.4729 14.0961Z" fill="#333333"/>
<path d="M105.301 16.5637C105.301 13.7305 105.301 10.8968 105.301 8.0627C105.301 7.12485 105.324 7.10342 106.219 7.10208C108.92 7.10208 111.62 7.10208 114.319 7.10208C115.597 7.08577 116.859 7.38002 117.998 7.95954C121.009 9.51905 121.08 13.9471 118.619 15.6875C118.012 16.1149 118.024 16.1591 118.69 16.4779C120.734 17.456 121.577 19.0973 121.399 21.316C121.228 23.4275 120.041 24.7337 118.121 25.4626C116.934 25.9128 115.696 26.0494 114.44 26.0521C111.717 26.0583 108.993 26.0583 106.267 26.0521C105.329 26.0521 105.302 26.0092 105.294 25.0607C105.294 25.0151 105.294 24.9709 105.294 24.9267C105.298 22.1372 105.3 19.3496 105.301 16.5637ZM112.356 22.3851C113.026 22.3851 113.696 22.3851 114.366 22.3851C114.925 22.3935 115.481 22.2976 116.005 22.1024C116.838 21.7715 117.247 21.174 117.241 20.3058C117.241 19.4684 116.839 18.8869 116.035 18.5533C115.58 18.3656 115.093 18.2664 114.6 18.2612C113.061 18.2411 111.519 18.2519 109.985 18.2371C109.568 18.2371 109.362 18.3966 109.365 18.824C109.365 19.8047 109.373 20.7854 109.365 21.7715C109.365 22.2297 109.568 22.4065 110.017 22.3972C110.795 22.3704 111.575 22.3824 112.356 22.3824V22.3851ZM111.804 14.7483V14.688C112.56 14.688 113.316 14.7001 114.071 14.6813C114.315 14.6626 114.556 14.6098 114.785 14.5245C115.818 14.1922 116.29 13.4781 116.164 12.4586C116.061 11.6225 115.45 11.0384 114.422 10.875C112.919 10.6351 111.401 10.7879 109.89 10.7664C109.535 10.7664 109.365 10.9687 109.365 11.3158C109.365 12.2724 109.365 13.229 109.365 14.1856C109.365 14.5674 109.537 14.7564 109.933 14.751C110.557 14.7389 111.181 14.7469 111.804 14.7469V14.7483Z" fill="#333333"/>
<path d="M178.464 14.3748V17.2446C178.464 19.9001 178.444 22.5556 178.478 25.211C178.487 25.8997 178.235 26.1181 177.583 26.0913C176.736 26.0551 175.887 26.0712 175.037 26.0832C174.528 26.0913 174.324 25.8729 174.326 25.3571C174.335 19.5111 174.335 13.6652 174.326 7.8192C174.326 7.25649 174.565 7.07697 175.095 7.09304C175.874 7.11716 176.658 7.1319 177.438 7.09304C178.022 7.05955 178.376 7.30073 178.719 7.7509C181.259 11.1165 183.811 14.4735 186.376 17.8221C186.534 18.0298 186.705 18.224 186.912 18.492C187.082 18.1638 187.03 17.8971 187.03 17.6439C187.03 14.4284 187.03 11.2151 187.03 8.00408C187.03 7.13187 187.051 7.1145 187.938 7.10914C188.742 7.10914 189.546 7.1386 190.35 7.09841C190.991 7.06625 191.196 7.30743 191.194 7.94651C191.171 11.9846 191.183 16.0241 191.183 20.0622C191.183 21.8039 191.159 23.5457 191.195 25.2874C191.207 25.9198 190.958 26.0913 190.372 26.1047C187.674 26.1583 187.675 26.1676 186.043 24.0226C183.705 20.9518 181.365 17.8815 179.024 14.8116C178.89 14.6414 178.75 14.482 178.612 14.3172L178.464 14.3748Z" fill="#333333"/>
<path d="M124.859 16.5292C124.859 13.6969 124.859 10.8641 124.859 8.03087C124.859 7.12651 124.887 7.10106 125.808 7.09302C128.441 7.09302 131.076 7.09302 133.713 7.09302C135.164 7.09302 136.564 7.34354 137.831 8.07909C141.644 10.2857 141.687 16.3389 137.913 18.6634C137.709 18.8 137.493 18.9184 137.268 19.0172C136.781 19.2088 136.751 19.4727 137.038 19.8827C137.958 21.1997 138.857 22.5301 139.764 23.8551C140.154 24.4259 140.537 25.002 140.933 25.5701C141.158 25.8917 141.093 26.0725 140.693 26.0712C139.353 26.0712 138.013 26.0484 136.674 26.0377C136.302 26.0377 136.138 25.7697 135.959 25.5017C134.869 23.8699 133.763 22.2474 132.693 20.6008C132.405 20.1586 132.075 19.951 131.543 19.9818C130.943 20.0166 130.338 20.0059 129.737 19.9818C129.226 19.9644 129.021 20.1707 129.027 20.6919C129.049 22.1858 129.011 23.681 129.043 25.1748C129.057 25.7978 128.864 26.0765 128.21 26.0497C127.363 26.0135 126.514 26.0202 125.664 26.0497C125.058 26.0685 124.846 25.822 124.85 25.2191C124.871 22.3251 124.861 19.4285 124.859 16.5292ZM129.035 13.524C129.035 14.2368 129.042 14.9509 129.035 15.6677C129.035 16.0442 129.169 16.2665 129.571 16.2665C131.065 16.2665 132.564 16.3764 134.052 16.2049C135.46 16.0415 136.364 15.0313 136.395 13.7169C136.435 12.0328 135.476 11.0266 133.591 10.9127C132.279 10.8337 130.959 10.8927 129.642 10.8686C129.168 10.8605 129.017 11.0775 129.027 11.5183C129.047 12.1842 129.035 12.8541 129.035 13.524Z" fill="#333333"/>
<path d="M16.3321 32.9658H15.2603C14.1884 32.9658 14.1804 32.9658 14.2514 31.8698C14.4318 28.8148 15.3594 25.8507 16.9528 23.2379C18.5462 20.625 20.7567 18.4433 23.3901 16.8843C24.06 16.4823 24.06 16.4502 23.3901 16.0362C17.9202 12.6367 14.8793 7.73079 14.2675 1.31855C14.1429 0.0015302 14.1509 0.000211385 15.4478 0.000211385C16.2517 0.000211385 17.0556 0.0109297 17.8595 0.000211385C18.2935 -0.00648757 18.4744 0.144919 18.5213 0.613846C19.1336 6.63487 22.1173 10.953 27.7578 13.3217C29.2316 13.9407 30.7938 14.202 32.3761 14.3427C32.7874 14.3788 32.987 14.4994 32.9817 14.9348C32.9669 15.9611 32.9643 16.9874 32.9817 18.0164C32.9911 18.4826 32.7887 18.6166 32.3439 18.6461C25.1091 19.1378 19.8303 23.9557 18.6781 31.0968C18.6432 31.3152 18.5937 31.5335 18.5441 31.7492C18.4583 32.1136 18.6781 32.584 18.3699 32.8358C18.0122 33.1279 17.5098 32.9336 17.0703 32.9698C16.8238 32.9792 16.5773 32.9658 16.3321 32.9658Z" fill="#333333"/>
<path d="M77.2551 26.1341C76.675 26.1341 76.0935 26.1114 75.5134 26.1341C75.0391 26.1596 74.7832 25.984 74.6264 25.5272C74.2245 24.3669 73.7636 23.2295 73.371 22.0679C73.1888 21.5319 72.9155 21.4073 72.3716 21.5239C70.9098 21.8374 69.4401 22.1107 67.9677 22.3693C66.4738 22.6306 65.4703 23.3996 64.9745 24.8841C64.4869 26.3445 64.7066 26.1073 63.2074 26.1274C62.3593 26.1381 61.5112 26.1274 60.6618 26.1274C59.7092 26.1274 59.6918 26.1019 60.0589 25.1895C61.7425 21.0103 63.428 16.8315 65.1152 12.6531C65.7851 10.9985 66.4671 9.35054 67.1102 7.68518C67.3045 7.18008 67.5617 6.94426 68.1338 6.96569C69.2699 7.00723 70.4114 6.99119 71.5476 6.97243C71.9817 6.96439 72.2443 7.09568 72.4131 7.52307C74.7872 13.4923 77.1707 19.4579 79.5635 25.42C79.7833 25.9667 79.6212 26.1529 79.0598 26.1315C78.4609 26.1167 77.8567 26.1341 77.2551 26.1341ZM69.8501 12.5272L69.6464 12.5459C68.8881 14.561 68.1289 16.576 67.3688 18.5911C67.1611 19.1484 67.563 19.0747 67.8685 19.0185C68.9845 18.8161 70.0939 18.5723 71.218 18.3874C71.8102 18.2896 71.8879 18.019 71.6949 17.5085C71.3265 16.5546 70.9889 15.5886 70.6338 14.6293C70.3752 13.9273 70.1113 13.2279 69.8501 12.5272Z" fill="#333333"/>
<path d="M162.127 6.98421C162.757 7.05924 163.658 6.69347 164.27 7.14096C164.853 7.56433 164.93 8.4727 165.208 9.17341C167.352 14.5156 169.487 19.8605 171.614 25.2081C171.973 26.1084 171.957 26.1325 170.99 26.1339C169.875 26.1339 168.757 26.1151 167.64 26.1432C167.156 26.154 166.915 25.965 166.761 25.5189C166.359 24.36 165.904 23.2198 165.504 22.0596C165.336 21.5652 165.09 21.4071 164.567 21.5236C163.038 21.8465 161.5 22.1198 159.966 22.4119C158.584 22.6799 157.645 23.41 157.163 24.7847C156.6 26.3924 156.922 26.1138 155.205 26.1379C154.357 26.1499 153.509 26.1459 152.66 26.1379C151.916 26.1298 151.856 26.0535 152.14 25.3621C153.965 20.8309 155.792 16.3007 157.622 11.7713C158.158 10.4315 158.734 9.09172 159.23 7.73183C159.445 7.1517 159.766 6.92794 160.37 6.97885C160.91 7.02172 161.449 6.98421 162.127 6.98421ZM162.013 12.5404L161.8 12.5216C161.02 14.5969 160.236 16.6749 159.467 18.7489C159.359 19.0397 159.569 19.0986 159.804 19.0544C161.073 18.8159 162.341 18.5738 163.607 18.3282C163.893 18.2719 164.039 18.0964 163.929 17.7923C163.293 16.0416 162.654 14.2923 162.013 12.5443V12.5404Z" fill="#333333"/>
<path d="M40.4819 16.6164C40.4819 10.6945 45.1711 6.36559 51.0997 6.77021C53.3988 6.92696 55.4661 7.59015 57.244 9.09875C57.7317 9.51275 57.8482 9.83433 57.3472 10.3341C56.7693 10.9237 56.2263 11.5464 55.7206 12.199C55.3576 12.6573 55.0735 12.7349 54.5979 12.3116C53.7167 11.51 52.6297 10.9696 51.4588 10.7507C48.1254 10.1545 45.2033 12.4201 44.9112 15.8285C44.8161 16.9325 44.9112 18.0151 45.3466 19.044C46.6462 22.1403 50.0024 23.3904 53.0317 21.9112C53.6963 21.5903 54.3106 21.1741 54.8551 20.6759C55.2222 20.3369 55.4835 20.3892 55.8037 20.7362C56.3637 21.3432 56.9385 21.942 57.5454 22.4994C57.9474 22.8678 57.8844 23.1237 57.5294 23.4855C55.2678 25.7872 52.4757 26.6206 49.3459 26.3473C44.1247 25.8958 40.4845 21.8523 40.4819 16.6164Z" fill="#333333"/>
<path d="M0.00539773 16.47C0.00539773 16.1137 0.00539773 15.7559 0.00539773 15.3982C0.00539773 14.3398 0.00540196 14.3264 1.14021 14.2313C2.96844 14.0768 4.74888 13.5666 6.38147 12.7294C8.57902 11.608 10.4523 9.94177 11.8224 7.89001C11.9403 7.71584 11.9992 7.4064 12.2591 7.44392C12.4614 7.47205 12.4775 7.75605 12.5512 7.93692C12.9679 8.97392 13.4154 10.0002 14.025 10.934C14.4055 11.5155 14.3037 11.9 13.8508 12.3824C12.5382 13.8157 11.0273 15.0537 9.36385 16.0588C8.71539 16.4419 8.71539 16.4674 9.35447 16.8492C11.1001 17.8929 12.673 19.2014 14.0169 20.7279C14.3639 21.1192 14.3559 21.4286 14.0933 21.8507C13.5014 22.8226 12.9944 23.8437 12.578 24.9028C12.4976 25.101 12.4856 25.4079 12.2457 25.4387C12.0059 25.4695 11.9228 25.1707 11.8036 24.9952C9.65994 21.8882 6.77 19.8637 3.09496 18.9822C2.3154 18.7868 1.51735 18.6745 0.714153 18.6472C0.142062 18.6338 -0.0240721 18.3873 0.00272371 17.8688C0.0255002 17.408 0.00673752 16.939 0.00539773 16.47Z" fill="#333333"/>
<path d="M148.973 16.6269C148.973 19.4601 148.973 22.2933 148.973 25.1265C148.973 25.9853 148.912 26.0442 148.067 26.0523C147.263 26.059 146.459 26.0215 145.655 26.063C144.986 26.0978 144.731 25.8527 144.75 25.1801C144.783 23.9542 144.758 22.7269 144.758 21.4997C144.758 17.0614 144.758 12.6222 144.758 8.18214C144.758 7.1103 144.771 7.10095 145.839 7.09827C146.53 7.09827 147.222 7.09827 147.913 7.09827C148.966 7.09827 148.97 7.09826 148.97 8.12856C148.974 10.9609 148.975 13.7937 148.973 16.6269Z" fill="#333333"/>
<path d="M86.4729 14.096L86.5131 14.0571L86.564 14.0826C86.5342 14.0904 86.5037 14.0949 86.4729 14.096Z" fill="#333333"/>
</svg>
