<svg width="203" height="33" viewBox="0 0 203 33" fill="none" xmlns="http://www.w3.org/2000/svg">
<path d="M173.133 16.4487C173.133 14.0214 173.15 11.5942 173.121 9.16513C173.114 8.5763 173.27 8.2288 173.812 7.91991C178.282 5.37622 182.738 2.80767 187.179 0.214254C187.678 -0.0762104 188.035 -0.0683075 188.528 0.219525C192.974 2.80826 197.43 5.37767 201.894 7.92779C202.387 8.20948 202.586 8.50521 202.584 9.09053C202.557 14.0322 202.557 18.9739 202.584 23.9156C202.584 24.4518 202.408 24.7519 201.948 25.017C197.434 27.6016 192.93 30.2023 188.434 32.8191C187.989 33.078 187.673 33.0473 187.25 32.8016C182.755 30.19 178.254 27.5928 173.744 25.0099C173.277 24.7467 173.119 24.4369 173.125 23.9025C173.15 21.4199 173.133 18.9339 173.133 16.4487ZM200 16.5364C200 14.4891 199.989 12.4427 200.009 10.3937C200.009 9.96456 199.884 9.70483 199.503 9.48632C195.851 7.39427 192.206 5.2908 188.567 3.17594C188.092 2.90039 187.672 2.8618 187.179 3.14787C183.541 5.26274 179.896 7.36616 176.244 9.45821C175.839 9.69076 175.678 9.95314 175.681 10.4235C175.7 14.4602 175.7 18.4968 175.681 22.5335C175.681 23.0469 175.871 23.3119 176.295 23.5558C179.949 25.6455 183.594 27.7516 187.228 29.8741C187.701 30.1505 188.043 30.1172 188.496 29.8531C192.107 27.747 195.728 25.6602 199.36 23.5927C199.874 23.3014 200.019 22.9731 200.011 22.415C199.981 20.4555 200 18.496 200 16.5364Z" fill="#333333"/>
<path d="M64.0899 13.4466C64.0963 17.1603 64.101 20.8752 64.1039 24.5913C64.1039 25.5136 64.0162 25.5846 63.0948 25.5961C62.5682 25.6031 62.0417 25.5961 61.5152 25.5864C61.1642 25.5864 60.9755 25.4004 60.9658 25.045C60.9597 24.8116 60.9544 24.5773 60.9544 24.343C60.9544 19.0777 60.9544 13.8143 60.9544 8.55256C60.9544 7.34244 60.9544 7.34158 62.1663 7.33807C62.6928 7.33807 63.2194 7.3591 63.7459 7.33365C64.2531 7.30908 64.5357 7.50918 64.7436 7.98743C65.6273 10.0251 66.547 12.0478 67.4552 14.0758C68.3995 16.1819 69.346 18.2879 70.2949 20.394C70.3739 20.5695 70.3941 20.8021 70.646 20.8679C70.9601 20.738 70.9733 20.4098 71.0847 20.1571C72.8038 16.2512 74.5361 12.347 76.2113 8.42445C76.5623 7.61097 76.98 7.18709 77.9014 7.32487C78.3876 7.39683 78.8939 7.32489 79.3932 7.34419C80.0075 7.36876 80.0698 7.44337 80.1041 8.08046C80.1128 8.25597 80.1041 8.43147 80.1041 8.60698V24.4851C80.1041 24.6308 80.1041 24.7773 80.1041 24.9239C80.076 25.6145 80.0163 25.6873 79.3502 25.7084C78.7658 25.7268 78.1805 25.7084 77.5952 25.7023C77.1678 25.6961 76.9519 25.4776 76.9581 25.0441C76.9581 24.8107 76.9528 24.5764 76.9528 24.3421C76.9528 21.066 76.9528 17.7898 76.9528 14.5137V13.5484C76.6018 13.6063 76.6123 13.8546 76.5448 14.0266C75.1635 17.5666 73.7858 21.1084 72.4116 24.6518C72.0562 25.5689 72.0526 25.5812 71.0909 25.5908C70.7398 25.5943 70.3888 25.5943 70.0378 25.5908C69.1103 25.5821 69.0883 25.5715 68.7496 24.7238C67.978 22.7967 67.2095 20.8685 66.4443 18.9391C65.7256 17.1173 65.0192 15.2912 64.3066 13.4668C64.2601 13.3307 64.2917 13.0938 64.053 13.1675C63.953 13.2026 64.0302 13.3571 64.0899 13.4466Z" fill="#333333"/>
<path d="M41.008 13.3185L40.9896 24.2878C40.9896 25.5962 40.9896 25.604 39.6935 25.5979C37.7717 25.5909 37.9595 25.7787 37.9577 23.8507C37.9525 18.878 37.9525 13.9068 37.9577 8.93699C37.9577 8.70357 37.9577 8.46926 37.9577 8.23496C37.9788 7.41008 38.0314 7.35743 38.8747 7.34076C39.4601 7.3311 40.0471 7.36971 40.6298 7.33022C41.2125 7.29073 41.5363 7.53382 41.7654 8.06473C42.5902 9.96898 43.4476 11.8592 44.2962 13.7538C45.2632 15.9155 46.2323 18.076 47.2035 20.2353C47.2347 20.3172 47.2701 20.3975 47.3096 20.4757C47.5281 20.8505 47.7238 20.8636 47.9239 20.4625C48.296 19.7017 48.633 18.9225 48.977 18.1459C50.4389 14.7972 51.9062 11.4502 53.3488 8.09279C53.5735 7.56627 53.8596 7.29163 54.4598 7.32936C55.1294 7.37148 55.8042 7.3478 56.4781 7.34166C56.9169 7.33727 57.1214 7.54872 57.1108 7.9831C57.1056 8.18756 57.1108 8.39291 57.1108 8.59737V24.3887C57.1108 24.5642 57.1161 24.7397 57.1108 24.9152C57.0766 25.5804 56.995 25.6804 56.3404 25.705C55.7559 25.7278 55.1706 25.705 54.5853 25.705C54.1465 25.705 53.9464 25.4873 53.9614 25.0529C53.9693 24.8186 53.9614 24.5843 53.9614 24.3509C53.9614 21.0748 53.9614 17.7986 53.9614 14.5225V13.48C53.5998 13.6555 53.5586 13.9337 53.4708 14.1575C52.1516 17.5395 50.8382 20.9206 49.5307 24.3009C49.457 24.4922 49.3552 24.6756 49.3043 24.8713C49.1595 25.4022 48.8365 25.6339 48.2784 25.5979C47.7816 25.5693 47.2835 25.5693 46.7866 25.5979C46.275 25.6242 45.9916 25.4171 45.8038 24.9319C45.0421 22.9697 44.2444 21.0215 43.4669 19.0655C42.7868 17.3534 42.119 15.637 41.4407 13.9249C41.3529 13.7099 41.2336 13.509 41.1291 13.3019C41.0818 13.244 41.0405 13.244 41.008 13.3185Z" fill="#333333"/>
<path d="M26.2944 25.7513C24.9862 25.8082 23.6784 25.6299 22.4332 25.2248C20.4052 24.5544 18.8871 23.2942 18.0622 21.3207C16.7336 18.144 16.5879 14.9146 17.899 11.6862C18.6554 9.82581 20.0384 8.54374 21.9216 7.88822C24.4428 7.01069 27.0306 6.97557 29.6035 7.63285C32.6038 8.39981 34.3177 10.4409 34.9469 13.4053C35.419 15.6333 35.4023 17.8807 34.8205 20.0895C34.0781 22.9116 32.2757 24.6851 29.4456 25.4179C28.4174 25.6842 27.3555 25.7966 26.2944 25.7513ZM31.6719 16.4811C31.7483 15.3824 31.5946 14.2798 31.2209 13.2438C30.6285 11.6107 29.4473 10.6788 27.7827 10.3216C26.8079 10.1191 25.8032 10.1063 24.8236 10.2839C22.8834 10.6156 21.5214 11.6502 20.9712 13.5431C20.3569 15.6658 20.342 17.8167 21.1467 19.9122C21.5154 20.8797 22.2321 21.6746 23.1563 22.1412C24.606 22.9046 26.1399 22.9178 27.687 22.6536C29.5632 22.3333 30.7435 21.1838 31.3165 19.3752C31.608 18.4397 31.7284 17.4593 31.6719 16.4811Z" fill="#333333"/>
<path d="M132.57 13.7301C132.57 15.4553 132.57 17.1811 132.57 18.9075C132.57 19.7938 132.395 20.653 132.131 21.4919C131.568 23.29 130.37 24.5308 128.611 25.1407C126.015 26.0401 123.367 26.0638 120.78 25.1407C118.381 24.2816 117.241 22.4045 116.954 19.9351C116.691 17.6895 116.844 15.4369 116.813 13.1877C116.789 11.5503 116.803 9.91189 116.813 8.27353C116.813 7.39073 116.867 7.35125 117.772 7.34072C118.299 7.33487 118.825 7.33487 119.352 7.34072C120.229 7.35388 120.273 7.39513 120.279 8.30601C120.286 9.56352 120.279 10.821 120.279 12.0794C120.279 14.244 120.279 16.4086 120.279 18.5732C120.266 18.9826 120.298 19.3922 120.374 19.7947C120.71 21.3129 121.598 22.2904 123.138 22.6213C124.388 22.8898 125.63 22.9012 126.851 22.4457C127.751 22.1132 128.398 21.5314 128.757 20.6301C129.075 19.8103 129.232 18.9371 129.22 18.0581C129.22 14.9867 129.22 11.9153 129.22 8.84393C129.22 8.63946 129.22 8.43412 129.22 8.22966C129.241 7.40565 129.293 7.35213 130.138 7.33721C130.693 7.32755 131.25 7.32317 131.805 7.33721C132.475 7.35739 132.555 7.42933 132.564 8.11118C132.58 9.30989 132.569 10.5095 132.57 11.7091V13.7274V13.7301Z" fill="#333333"/>
<path d="M106.521 11.1378C105.977 12.1443 105.632 13.1684 105.224 14.1644C103.785 17.6816 102.352 21.2017 100.924 24.7247C100.579 25.5733 100.56 25.5829 99.6345 25.5899C99.0202 25.5899 98.406 25.604 97.7917 25.5838C97.1932 25.5628 97.1248 25.461 97.3529 24.8818C97.6732 24.0657 98.0225 23.261 98.3656 22.4545C100.318 17.8527 102.273 13.2524 104.23 8.65348C104.892 7.10814 104.621 7.3565 106.178 7.33281C106.705 7.32491 107.231 7.35562 107.758 7.32578C108.284 7.29595 108.566 7.51708 108.761 7.98218C109.326 9.33007 109.915 10.6674 110.498 12.0083C112.243 16.0303 113.989 20.0524 115.734 24.0744C116.401 25.6198 116.516 25.6075 114.734 25.5944C114.267 25.5944 113.798 25.5742 113.33 25.5944C112.848 25.6181 112.592 25.3925 112.403 24.9643C111.872 23.7612 111.287 22.5809 110.763 21.3752C110.534 20.8486 110.21 20.6231 109.622 20.6397C108.393 20.6748 107.165 20.6512 105.936 20.6485C105.702 20.6536 105.467 20.6454 105.234 20.624C104.941 20.5906 104.812 20.3949 104.912 20.1282C105.178 19.4168 105.46 18.7118 105.761 18.0133C105.898 17.693 106.218 17.6886 106.515 17.6868C107.276 17.6868 108.037 17.6992 108.797 17.6728C109.346 17.6544 109.437 17.5315 109.219 17.0181C108.405 15.1095 107.565 13.2123 106.731 11.3142C106.72 11.2712 106.655 11.2457 106.521 11.1378Z" fill="#333333"/>
<path d="M91.1865 21.011C91.4708 20.8101 91.5138 20.5047 91.6191 20.2449C93.232 16.2609 94.8394 12.2749 96.4412 8.28674C96.8229 7.339 96.8229 7.33726 97.8452 7.33375C98.6052 7.33375 99.366 7.32061 100.127 7.33992C100.731 7.35484 100.796 7.44606 100.549 8.02524C99.8267 9.71976 99.0834 11.4047 98.3454 13.0922C96.7167 16.8155 95.0985 20.5442 93.4496 24.2571C92.7151 25.9077 92.9872 25.6962 91.2014 25.7129C90.7916 25.7173 90.3809 25.6892 89.9728 25.7181C89.3831 25.7611 89.069 25.49 88.8522 24.9573C88.1037 23.1145 87.3218 21.2875 86.5531 19.4543C85.0156 15.7879 83.4782 12.1213 81.9407 8.45436C81.4739 7.33989 81.4792 7.33726 82.7121 7.33551C83.3553 7.33551 84.0012 7.37062 84.6427 7.32586C85.2842 7.28111 85.6404 7.53122 85.8818 8.14813C86.9146 10.7895 87.9931 13.4133 89.0576 16.0415C89.6607 17.5316 90.2671 19.0208 90.8767 20.5091C90.9487 20.689 90.9881 20.9013 91.1865 21.011Z" fill="#333333"/>
<path d="M9.93183 25.7515C8.089 25.8077 6.36552 25.5673 4.72365 24.8609C2.85537 24.0562 1.52766 22.7057 0.813341 20.8102C-0.199336 18.1223 -0.239703 15.365 0.543937 12.6262C1.22052 10.2692 2.8387 8.71332 5.14136 7.92705C7.03151 7.28933 9.0356 7.06048 11.0209 7.2557C12.0993 7.35398 13.1734 7.45931 14.2177 7.7647C15.1383 8.0341 15.1927 8.0964 15.1997 9.02834C15.1997 9.52503 15.1997 10.0226 15.183 10.5202C15.1681 10.8993 14.9513 11.0344 14.5907 10.9361C14.3932 10.8817 14.1993 10.8141 14.0036 10.7562C12.1274 10.2051 10.224 10.0103 8.28469 10.328C5.89867 10.7185 4.10674 12.0962 3.69517 14.7104C3.45912 16.2101 3.52931 17.6887 3.99002 19.1314C4.6043 21.069 6.00836 22.18 7.95122 22.5819C9.99237 23.004 12.023 22.8574 14.0176 22.2537C15.1189 21.9202 15.1172 21.9132 15.2462 23.0356C15.4638 24.9302 15.4507 24.9442 13.6078 25.3883C12.4052 25.679 11.1681 25.8012 9.93183 25.7515Z" fill="#333333"/>
<path d="M154.714 18.0326C154.714 20.2265 154.718 22.4151 154.714 24.6063C154.714 25.5452 154.665 25.5856 153.716 25.5944C153.132 25.6005 152.548 25.5891 151.961 25.5882C151.565 25.5882 151.37 25.3925 151.369 24.9976C151.369 24.7344 151.362 24.4711 151.362 24.2079C151.362 20.0302 151.362 15.8522 151.362 11.674C151.362 11.4397 151.371 11.2054 151.356 10.972C151.316 10.4095 151.245 10.3182 150.664 10.3085C149.436 10.2884 148.207 10.3086 146.979 10.2954C146.179 10.2875 146.12 10.227 146.101 9.45912C146.09 8.9326 146.101 8.40608 146.108 7.87955C146.108 7.52152 146.3 7.346 146.654 7.34073C146.858 7.34073 147.063 7.33195 147.268 7.33195H158.751C158.926 7.33195 159.102 7.32493 159.277 7.33722C159.851 7.37759 159.935 7.44693 159.959 8.01294C159.981 8.53946 159.98 9.06599 159.959 9.59251C159.934 10.2068 159.863 10.2823 159.216 10.2945C158.106 10.313 156.996 10.2998 155.886 10.3024C154.714 10.3024 154.71 10.3068 154.709 11.459C154.71 13.6499 154.712 15.8411 154.714 18.0326Z" fill="#333333"/>
<path d="M136.072 16.3583C136.072 13.7585 136.072 11.1583 136.072 8.55787C136.072 8.32445 136.077 8.09014 136.086 7.85584C136.097 7.54519 136.261 7.35738 136.574 7.35387C137.362 7.3451 138.151 7.3451 138.943 7.35387C139.263 7.35387 139.408 7.56098 139.416 7.86724C139.423 8.1305 139.427 8.39376 139.428 8.65702V21.2777C139.428 21.4822 139.424 21.6867 139.428 21.892C139.451 22.6642 139.507 22.7362 140.295 22.7397C142.37 22.7503 144.444 22.7397 146.518 22.745C148.057 22.745 148.01 22.6169 148.01 24.2087C148.01 25.7006 148.023 25.5952 146.619 25.5961C143.552 25.5961 140.484 25.5961 137.416 25.5961C137.153 25.5961 136.889 25.5908 136.626 25.5847C136.275 25.5759 136.094 25.3873 136.085 25.0362C136.079 24.8028 136.074 24.5685 136.073 24.3342L136.072 16.3583Z" fill="#333333"/>
<path d="M64.0899 13.4467C64.0302 13.3589 63.9486 13.2027 64.053 13.1711C64.2917 13.0974 64.2601 13.3344 64.3066 13.4704L64.0899 13.4467Z" fill="#333333"/>
<path d="M41.008 13.3186C41.0405 13.2449 41.0817 13.2466 41.13 13.3037L41.008 13.3186Z" fill="#333333"/>
<path d="M178.077 11.9628C178.335 11.9031 178.51 12.0874 178.705 12.1988C181.261 13.6705 183.811 15.1544 186.374 16.6164C186.798 16.8577 187.01 17.1271 187.006 17.6466C186.983 20.5688 186.995 23.491 186.992 26.4132C186.992 26.5773 187.044 26.7642 186.87 26.9134C186.592 26.9555 186.396 26.7528 186.178 26.6273C183.647 25.1697 181.123 23.6999 178.587 22.2528C178.164 22.0115 177.935 21.7377 177.939 21.2243C177.956 18.3021 177.947 15.3799 177.949 12.4577C177.945 12.2866 177.932 12.1032 178.077 11.9628Z" fill="#333333"/>
<path d="M179.298 10.4516C179.459 10.1752 179.721 10.0927 179.943 9.96455C182.319 8.58769 184.706 7.23189 187.07 5.83485C187.611 5.51543 188.052 5.47595 188.605 5.80328C190.969 7.19944 193.354 8.56048 195.731 9.93382C195.834 9.98721 195.935 10.0458 196.032 10.1093C196.375 10.3559 196.383 10.527 196.054 10.7728C195.957 10.8374 195.857 10.896 195.753 10.9483C193.375 12.3207 190.989 13.6783 188.625 15.0727C188.078 15.3965 187.65 15.4 187.098 15.0727C184.686 13.6432 182.248 12.2567 179.821 10.8544C179.647 10.764 179.453 10.6877 179.298 10.4516Z" fill="#333333"/>
<path d="M196.494 22.6152L188.934 26.9695C188.671 26.794 188.711 26.608 188.711 26.443C188.707 23.9052 188.707 21.3673 188.711 18.8295C188.711 18.1336 188.819 18.0511 189.38 18.3714C191.683 19.6877 193.975 21.0233 196.269 22.3537C196.317 22.3844 196.346 22.4432 196.494 22.6152Z" fill="#333333"/>
</svg>
