<svg width="24" height="24" viewBox="0 0 24 24" fill="none" xmlns="http://www.w3.org/2000/svg">
<g clip-path="url(#clip0_108_790)">
<path d="M15.2632 21.2698C19.6247 20.9799 23.0989 17.4564 23.3848 13.0331C23.4407 12.1674 23.4407 11.2709 23.3848 10.4053C23.0989 5.98196 19.6247 2.45851 15.2632 2.16859C13.7752 2.06968 12.2217 2.06989 10.7367 2.16859C6.37523 2.45851 2.90107 5.98196 2.6152 10.4053C2.55926 11.2709 2.55926 12.1674 2.6152 13.0331C2.71932 14.6441 3.43181 16.1357 4.27062 17.3953C4.75765 18.2771 4.43623 19.3776 3.92893 20.339C3.56316 21.0321 3.38028 21.3787 3.52712 21.6291C3.67397 21.8794 4.00197 21.8874 4.65799 21.9034C5.95533 21.935 6.83014 21.5671 7.52456 21.0551C7.9184 20.7647 8.11533 20.6194 8.25105 20.6028C8.38677 20.5861 8.65387 20.6961 9.18797 20.9161C9.668 21.1138 10.2254 21.2358 10.7367 21.2698C12.2217 21.3685 13.7752 21.3687 15.2632 21.2698Z" stroke="white" stroke-width="1.56401" stroke-linejoin="round"/>
<path d="M12.9953 11.9998H13.0046M17.1613 11.9998H17.1706M8.82928 11.9998H8.83864" stroke="white" stroke-width="2.08535" stroke-linecap="round" stroke-linejoin="round"/>
</g>
<defs>
<clipPath id="clip0_108_790">
<rect width="24" height="24" fill="white"/>
</clipPath>
</defs>
</svg>
