<svg width="185" height="33" viewBox="0 0 185 33" fill="none" xmlns="http://www.w3.org/2000/svg">
<path d="M95.9688 25.3946H89.6598V24.2714C89.6598 21.3854 89.6705 18.4951 89.6598 15.6112C89.6522 15.0438 89.5942 14.4782 89.4865 13.9211C89.2726 12.7423 88.6607 11.8544 87.3899 11.6747C86.0849 11.4907 84.8227 11.8887 84.3092 13.0803C83.7198 14.4367 83.366 15.8837 83.2631 17.3591C83.1026 19.9841 83.2181 22.6262 83.2181 25.3561H76.8813C76.8813 24.6415 76.8813 23.9376 76.8813 23.2338C76.8642 20.3841 76.8962 17.5323 76.8085 14.6763C76.7508 12.7765 75.8137 11.6811 74.3247 11.6191C73.0603 11.5699 71.9436 12.0705 71.4258 13.2429C70.944 14.2646 70.6539 15.3661 70.5701 16.4926C70.4546 19.4064 70.5316 22.331 70.5316 25.3454H64.2589V6.83545H69.8726V9.89477L70.0866 10.0723C71.5628 7.62057 73.7492 6.46105 76.4919 6.34766C79.2881 6.23427 81.4831 7.25689 82.7945 9.91828C85.0559 6.58084 88.1772 5.91548 91.7799 6.59367C93.7289 6.96164 94.9077 8.20462 95.4918 10.0167C95.7628 10.7904 95.9178 11.6001 95.9517 12.4192C95.9924 16.7108 95.9688 20.9875 95.9688 25.3946Z" fill="#333333"/>
<path d="M106.488 33H100.175V6.77328C101.953 6.77328 103.718 6.75186 105.478 6.80749C105.656 6.80749 105.938 7.28243 105.962 7.55413C106.028 8.32217 105.985 9.10094 106.095 9.94172C107.218 8.17886 108.777 7.16052 110.739 6.62567C114.128 5.71643 117.403 6.89521 119.329 9.80691C121.95 13.769 121.453 20.0759 118.533 23.3898C115.82 26.4727 109.334 27.0268 106.488 23.0625V33ZM114.678 16.1288C114.376 15.104 114.231 14.0536 113.773 13.1658C112.44 10.5643 108.816 10.5001 107.308 13.0096C106.127 14.9778 106.15 17.0188 107.214 18.9998C107.892 20.2663 108.996 21.0237 110.502 21.0087C111.939 20.9938 113.084 20.3562 113.711 19.0833C114.16 18.189 114.353 17.1621 114.678 16.1288Z" fill="#333333"/>
<path d="M21.7579 1.28583L21.2444 6.32189C19.8004 5.86193 18.4633 5.30358 17.0641 5.02118C14.392 4.48206 11.8012 4.72592 9.59765 6.5444C7.03039 8.66239 6.08693 12.5539 7.26145 15.9085C7.79108 17.4174 8.78449 18.7201 10.0995 19.63C11.4145 20.54 12.9837 21.0106 14.5824 20.9746C16.3709 20.951 18.1573 20.5082 19.9416 20.2258C20.459 20.1156 20.9703 19.9785 21.4734 19.815C21.5782 21.3917 21.7044 22.87 21.7472 24.3505C21.7472 24.5644 21.4113 24.9581 21.1674 25.0201C16.4373 26.2396 11.7285 26.3594 7.15448 24.3783C2.74735 22.4785 0.462491 18.9914 0.0667052 14.2826C-0.230669 10.7376 0.430401 7.40443 2.77516 4.56761C4.88673 2.01105 7.715 0.810889 10.8898 0.269625C14.5396 -0.344378 18.1038 0.130565 21.7579 1.28583Z" fill="#333333"/>
<path d="M50.554 25.9381C46.6711 25.7456 43.6246 24.9583 41.3354 22.3654C37.5637 18.0866 38.1413 8.61125 46.7887 6.71147C50.0384 5.99692 53.2539 6.17235 56.217 7.83679C59.8261 9.86493 61.1376 13.1853 60.838 17.1153C60.5171 21.2336 58.1424 23.9186 54.268 25.1979C52.9073 25.6493 51.4355 25.7713 50.554 25.9381ZM45.5714 15.883C45.8003 16.9527 45.9073 17.9111 46.2132 18.8033C46.8251 20.534 48.2735 21.4711 50.0641 21.4476C50.8891 21.442 51.6922 21.1811 52.363 20.7008C53.0337 20.2204 53.5393 19.5441 53.8102 18.7648C54.5009 16.9459 54.4502 14.9286 53.669 13.1468C53.0272 11.6299 51.7585 10.8169 50.1625 10.7635C48.4981 10.7078 47.0519 11.3411 46.3758 13.0034C46.0164 13.9426 45.8474 14.9674 45.58 15.8916L45.5714 15.883Z" fill="#333333"/>
<path d="M151.233 25.953C146.914 25.739 143.728 24.9389 141.429 22.1021C137.986 17.8554 138.568 8.89143 146.599 6.8526C150.425 5.88132 154.109 6.14446 157.427 8.45071C160.366 10.4917 161.385 13.5082 161.141 16.9376C160.876 20.6473 159.087 23.4478 155.544 24.8213C153.914 25.4524 152.143 25.7219 151.233 25.953ZM145.921 15.8273C146.135 16.8606 146.219 17.7891 146.497 18.6577C147.068 20.4526 148.525 21.4624 150.348 21.456C151.192 21.4642 152.018 21.2047 152.707 20.7147C153.395 20.2247 153.91 19.5293 154.179 18.7283C154.792 17.0001 154.773 15.1109 154.128 13.3948C153.512 11.7475 152.222 10.8275 150.47 10.7612C148.758 10.6927 147.32 11.5378 146.659 13.1509C146.302 14.0217 146.148 14.978 145.921 15.8273Z" fill="#333333"/>
<path d="M170.866 25.386H164.553C164.53 25.018 164.485 24.6458 164.483 24.2714C164.483 18.8181 164.506 13.3606 164.457 7.91369C164.457 6.93171 164.778 6.70066 165.683 6.73917C167.168 6.80549 168.659 6.75839 170.252 6.75839V9.93753C171.282 8.54052 172.488 7.50079 174.054 6.9039C179.358 4.88219 183.752 7.63771 184.306 13.3221C184.334 13.6045 184.332 13.8911 184.332 14.1778C184.332 17.8789 184.332 21.5822 184.332 25.3646H177.999C177.999 24.9367 177.999 24.5281 177.999 24.1152C177.944 20.981 177.978 17.8447 177.785 14.719C177.672 12.77 176.654 11.7624 175.147 11.5956C174.323 11.5065 173.493 11.708 172.802 12.1654C172.11 12.6228 171.599 13.3073 171.359 14.1008C171.061 15.0121 170.9 15.9621 170.879 16.9205C170.828 19.7038 170.866 22.4829 170.866 25.386Z" fill="#333333"/>
<path d="M122.67 11.1613C122.67 9.77071 122.632 8.5641 122.707 7.36391C122.722 7.14997 123.19 6.80768 123.468 6.78629C124.418 6.71355 125.375 6.75845 126.464 6.75845C126.464 5.59676 126.506 4.53781 126.446 3.48523C126.408 2.78779 126.66 2.48827 127.322 2.30001C129.086 1.79297 130.83 1.20889 132.728 0.609863V6.71567H137.22V11.1613C136.11 11.1613 134.985 11.1998 133.866 11.1485C133.064 11.1121 132.721 11.3153 132.751 12.2182C132.822 14.2805 132.751 16.3493 132.794 18.4224C132.837 21.1929 133.877 22.038 136.645 21.6101C136.816 21.5823 136.989 21.5673 137.349 21.5223V25.5572C134.833 25.9851 132.18 26.2696 129.598 25.3283C127.317 24.4961 126.547 22.5471 126.476 20.3157C126.393 17.6479 126.412 14.9673 126.459 12.3016C126.476 11.3902 126.153 11.1057 125.289 11.1656C124.47 11.2062 123.652 11.1613 122.67 11.1613Z" fill="#333333"/>
<path d="M31.0107 25.3946C30.6128 25.4203 30.3689 25.4503 30.1272 25.4503C28.3515 25.4503 26.5737 25.4503 24.7209 25.4503V6.7756C26.4731 6.7756 28.2402 6.75633 30.0031 6.81195C30.1657 6.81195 30.4203 7.3126 30.4438 7.595C30.5058 8.3502 30.4652 9.11395 30.585 9.93547C32.2794 6.82053 34.8103 5.815 38.2632 6.60444C38.1648 8.29883 38.0664 9.98253 37.9637 11.7518C37.4888 11.7197 37.108 11.7133 36.725 11.6641C33.7299 11.2812 31.4771 12.8835 31.1926 15.9C30.953 18.4416 31.0557 21.0153 31.0107 23.5762C31.0022 24.1453 31.0107 24.7122 31.0107 25.3946Z" fill="#333333"/>
</svg>
