<svg width="285" height="113" viewBox="0 0 285 113" fill="none" xmlns="http://www.w3.org/2000/svg">
<g filter="url(#filter0_dd_108_706)">
<rect x="1.55432" y="11.2564" width="278" height="100" rx="13" transform="rotate(-2 1.55432 11.2564)" fill="white"/>
<rect x="1.81289" y="11.4975" width="277.5" height="99.5" rx="12.75" transform="rotate(-2 1.81289 11.4975)" stroke="#F5FAEF" stroke-width="0.5"/>
<path d="M28.954 57.3282L28.3432 39.8389L39.3115 39.4559L39.3866 41.6045L31.0666 41.8951L31.2594 47.4167L38.1552 47.1759L38.2294 49.2996L31.3336 49.5404L31.6023 57.2357L28.954 57.3282ZM45.4365 57.0528C44.3871 57.0895 43.5148 56.9448 42.8197 56.6189C42.1246 56.2929 41.6006 55.8526 41.2477 55.2979C40.8942 54.7266 40.7055 54.0995 40.6817 53.4165C40.6398 52.2173 41.073 51.2516 41.9813 50.5194C42.8897 49.7873 44.21 49.391 45.9423 49.3305L49.1903 49.217L49.1824 48.9922C49.1487 48.0261 48.8569 47.3108 48.307 46.8464C47.7738 46.3814 47.0908 46.1634 46.2579 46.1925C45.525 46.2181 44.8902 46.4237 44.3533 46.8094C43.8325 47.1778 43.526 47.7138 43.4339 48.4174L40.7855 48.5099C40.8373 47.6076 41.1104 46.8309 41.6047 46.1799C42.115 45.5117 42.7641 44.9971 43.552 44.636C44.3559 44.2577 45.2409 44.0517 46.207 44.018C47.9393 43.9575 49.2961 44.3687 50.2775 45.2517C51.2584 46.118 51.7761 47.334 51.8308 48.8997L52.0969 56.52L49.7983 56.6003L49.4993 54.4845C49.1734 55.1796 48.6854 55.772 48.0354 56.2616C47.3854 56.7513 46.5191 57.015 45.4365 57.0528ZM45.8861 54.8858C46.6023 54.8608 47.1961 54.6733 47.6676 54.3233C48.155 53.9561 48.5221 53.4846 48.7689 52.909C49.0322 52.3328 49.1853 51.7021 49.2281 51.0168L46.2799 51.1198C45.2305 51.1564 44.4874 51.3658 44.0505 51.748C43.6302 52.1295 43.4297 52.5951 43.4489 53.1448C43.4686 53.7111 43.6925 54.1536 44.1206 54.4722C44.5647 54.7735 45.1532 54.9114 45.8861 54.8858ZM59.9025 56.5477C58.3368 56.6023 57.0325 56.2643 55.9897 55.5336C54.9469 54.8029 54.3284 53.8072 54.1343 52.5465L56.8077 52.4532C56.9607 53.0148 57.2944 53.4951 57.8086 53.8941C58.3223 54.2764 58.9872 54.4533 59.8033 54.4248C60.6028 54.3969 61.18 54.21 61.5348 53.864C61.8896 53.5181 62.0595 53.1286 62.0443 52.6956C62.0222 52.0626 61.7492 51.6469 61.2253 51.4484C60.7175 51.2326 60.0106 51.0489 59.1048 50.897C58.4 50.7716 57.6934 50.5961 56.9851 50.3707C56.2935 50.1447 55.7066 49.815 55.2245 49.3815C54.7585 48.9309 54.5118 48.3141 54.4845 47.5312C54.4467 46.4486 54.8317 45.5346 55.6395 44.7893C56.4468 44.0273 57.5999 43.6201 59.099 43.5678C60.4815 43.5195 61.6091 43.8137 62.4819 44.4503C63.3713 45.0863 63.9121 46.0096 64.1045 47.2203L61.5561 47.3093C61.4542 46.7792 61.1898 46.3715 60.7629 46.0862C60.3527 45.8004 59.8061 45.6694 59.1232 45.6932C58.4569 45.7165 57.9455 45.8761 57.589 46.1721C57.2318 46.4514 57.0608 46.8076 57.0759 47.2406C57.0911 47.6737 57.3528 48.0064 57.8613 48.2388C58.3863 48.4706 59.0688 48.6719 59.9086 48.8427C60.7478 48.9969 61.5216 49.1867 62.2299 49.4121C62.9542 49.6203 63.5411 49.95 63.9905 50.4012C64.4398 50.8525 64.6802 51.5279 64.7116 52.4273C64.7678 53.5594 64.3593 54.5159 63.486 55.2968C62.6294 56.0772 61.4349 56.4941 59.9025 56.5477ZM72.2236 55.8172C71.0077 55.8597 70.0314 55.6019 69.2948 55.0439C68.5577 54.4693 68.1626 53.4241 68.1097 51.9084L67.8959 45.7871L65.7722 45.8613L65.6946 43.6376L67.8183 43.5635L68.0331 40.4041L70.3567 40.3229L70.4666 43.471L73.9645 43.3489L74.0422 45.5725L70.5443 45.6946L70.7581 51.8159C70.7819 52.4988 70.9401 52.9686 71.2325 53.2252C71.5411 53.4646 72.0535 53.5718 72.7697 53.5468L74.1938 53.497L74.2723 55.7457L72.2236 55.8172ZM76.493 58.6199L77.7362 52.6729L80.3596 52.5813L78.2669 58.558L76.493 58.6199ZM94.6607 55.3339C93.3782 55.3787 92.246 55.1931 91.2642 54.7771C90.2825 54.3611 89.5022 53.7463 88.9234 52.9326C88.3614 52.1184 88.0519 51.137 87.9951 49.9882L90.7934 49.8905C90.8426 50.8227 91.1951 51.6025 91.8507 52.23C92.5063 52.8575 93.4088 53.1512 94.5581 53.1111C95.5742 53.0756 96.3569 52.8065 96.9064 52.3036C97.4719 51.7836 97.7413 51.1405 97.7145 50.3743C97.693 49.758 97.534 49.2632 97.2374 48.89C96.9575 48.5162 96.5717 48.2128 96.08 47.9799C95.6049 47.7463 95.0557 47.5403 94.4324 47.362C93.8091 47.1836 93.152 46.9898 92.4609 46.7804C91.096 46.3778 90.0596 45.8303 89.3517 45.1379C88.6604 44.445 88.2944 43.5155 88.2537 42.3496C88.2027 41.3674 88.3976 40.5017 88.8384 39.7526C89.2959 39.0028 89.9424 38.4132 90.7779 37.9838C91.6295 37.5371 92.6299 37.2938 93.7792 37.2536C94.9119 37.2141 95.9102 37.3877 96.7742 37.7744C97.6549 38.1606 98.3498 38.72 98.8591 39.4527C99.3677 40.1687 99.6475 41.0178 99.6985 41.9999L96.9002 42.0976C96.8845 41.6479 96.753 41.2273 96.5059 40.8356C96.2582 40.4274 95.9048 40.0978 95.4457 39.847C94.9867 39.5962 94.4324 39.4822 93.7828 39.5049C92.9494 39.5173 92.2654 39.7496 91.7309 40.2019C91.213 40.6536 90.9674 41.2625 90.9942 42.0287C91.018 42.7116 91.2362 43.2293 91.6488 43.5818C92.0613 43.9343 92.6217 44.2233 93.33 44.4487C94.0378 44.6574 94.8469 44.9043 95.7574 45.1894C96.6334 45.4423 97.4199 45.7567 98.1167 46.1326C98.8136 46.5086 99.3733 47.0143 99.7957 47.65C100.235 48.285 100.472 49.1023 100.507 50.1017C100.538 50.9845 100.341 51.8168 99.9185 52.5987C99.4949 53.364 98.8419 54.0038 97.9593 54.5183C97.0761 55.016 95.9766 55.2879 94.6607 55.3339ZM109.034 54.8319C107.818 54.8744 106.726 54.6457 105.758 54.1458C104.806 53.6288 104.047 52.8965 103.48 51.949C102.914 51.0015 102.608 49.8865 102.563 48.604C102.518 47.3048 102.736 46.1548 103.218 45.154C103.717 44.1527 104.423 43.3609 105.336 42.7786C106.267 42.1958 107.356 41.8826 108.606 41.839C109.821 41.7965 110.889 42.0344 111.807 42.5527C112.725 43.0543 113.45 43.7461 113.981 44.6281C114.512 45.5101 114.797 46.4924 114.835 47.5751C114.84 47.7416 114.838 47.9252 114.829 48.1256C114.835 48.3088 114.834 48.5173 114.826 48.7511L105.181 49.0879C105.307 50.2843 105.73 51.1867 106.452 51.7952C107.189 52.3865 108.025 52.6658 108.957 52.6333C109.707 52.6071 110.326 52.4187 110.814 52.0681C111.318 51.7003 111.685 51.2206 111.914 50.6289L114.563 50.5364C114.27 51.714 113.638 52.7116 112.666 53.5294C111.711 54.3466 110.5 54.7807 109.034 54.8319ZM108.656 44.0135C107.774 44.0444 107 44.3382 106.336 44.8951C105.671 45.4353 105.282 46.2327 105.169 47.2872L112.164 47.0429C112.081 46.0786 111.712 45.3243 111.06 44.7801C110.407 44.2359 109.606 43.9804 108.656 44.0135ZM123.46 54.3282C122.244 54.3706 121.144 54.1339 120.158 53.618C119.19 53.1015 118.414 52.3698 117.83 51.4229C117.263 50.4588 116.957 49.3354 116.912 48.0529C116.867 46.7703 117.095 45.6367 117.594 44.652C118.109 43.6501 118.832 42.8577 119.762 42.2749C120.709 41.6915 121.79 41.3786 123.006 41.3361C124.539 41.2826 125.835 41.6375 126.896 42.401C127.973 43.1639 128.686 44.223 129.033 45.5783L126.26 45.6752C126.069 44.9981 125.684 44.4779 125.105 44.1146C124.525 43.7512 123.852 43.5829 123.086 43.6097C122.436 43.6324 121.842 43.8199 121.304 44.1722C120.766 44.5079 120.341 44.998 120.03 45.6426C119.718 46.2705 119.578 47.0425 119.61 47.9586C119.642 48.8748 119.836 49.6435 120.191 50.2648C120.546 50.8694 121.004 51.3287 121.565 51.6427C122.126 51.9566 122.732 52.1022 123.382 52.0795C124.148 52.0528 124.807 51.838 125.36 51.4351C125.913 51.0322 126.261 50.4781 126.403 49.7727L129.176 49.6758C128.94 51.0183 128.311 52.1159 127.29 52.9687C126.269 53.8215 124.992 54.2747 123.46 54.3282ZM136.536 53.8715C135.037 53.9239 133.838 53.4988 132.939 52.5963C132.057 51.6932 131.584 50.3172 131.519 48.4683L131.271 41.3477L133.919 41.2552L134.158 48.101C134.242 50.4996 135.267 51.6645 137.232 51.5959C138.215 51.5616 139.01 51.1836 139.619 50.4619C140.228 49.7402 140.509 48.7298 140.464 47.4306L140.24 41.0344L142.889 40.942L143.322 53.3344L140.973 53.4164L140.697 51.2497C140.341 52.0293 139.796 52.657 139.062 53.1329C138.344 53.5916 137.502 53.8378 136.536 53.8715ZM146.451 53.2251L146.018 40.8327L148.391 40.7498L148.698 43.0905C149.103 42.2592 149.68 41.597 150.43 41.1039C151.196 40.5935 152.129 40.3191 153.228 40.2807L153.325 43.054L152.6 43.0793C151.867 43.1049 151.214 43.2528 150.64 43.523C150.081 43.776 149.638 44.2001 149.308 44.7953C148.995 45.3732 148.856 46.1702 148.891 47.1863L149.099 53.1327L146.451 53.2251ZM161.167 53.0114C159.952 53.0539 158.86 52.8252 157.892 52.3253C156.94 51.8082 156.18 51.0759 155.613 50.1285C155.047 49.181 154.741 48.066 154.696 46.7835C154.651 45.4842 154.869 44.3343 155.351 43.3335C155.85 42.3321 156.556 41.5403 157.47 40.9581C158.4 40.3753 159.49 40.0621 160.739 40.0184C161.955 39.976 163.022 40.2139 163.941 40.7321C164.859 41.2337 165.583 41.9255 166.114 42.8075C166.645 43.6895 166.93 44.6719 166.968 45.7546C166.974 45.9211 166.972 46.1046 166.962 46.3051C166.968 46.4883 166.967 46.6968 166.959 46.9306L157.315 47.2674C157.44 48.4637 157.863 49.3662 158.585 49.9747C159.323 50.566 160.158 50.8453 161.091 50.8127C161.84 50.7866 162.459 50.5982 162.947 50.2476C163.451 49.8798 163.818 49.4 164.048 48.8083L166.696 48.7158C166.404 49.8934 165.771 50.8911 164.799 51.7089C163.844 52.526 162.633 52.9602 161.167 53.0114ZM160.79 42.193C159.907 42.2238 159.133 42.5177 158.469 43.0745C157.804 43.6147 157.415 44.4121 157.302 45.4667L164.298 45.2224C164.214 44.2581 163.846 43.5038 163.193 42.9596C162.54 42.4154 161.739 42.1598 160.79 42.193ZM168.34 55.4125L169.583 49.4655L172.207 49.3739L170.114 55.3506L168.34 55.4125ZM28.6672 81.3529L34.5026 63.6384L37.4008 63.5372L44.4076 80.8032L41.6093 80.9009L39.9611 76.6809L32.8154 76.9304L31.4655 81.2551L28.6672 81.3529ZM33.4917 74.8055L39.1382 74.6083L36.0366 66.7368L33.4917 74.8055ZM50.8211 80.8794C49.322 80.9318 48.1231 80.5067 47.2244 79.6042C46.3423 78.7011 45.869 77.3251 45.8044 75.4762L45.5558 68.3555L48.2042 68.2631L48.4432 75.1089C48.527 77.5074 49.5516 78.6724 51.5171 78.6037C52.4998 78.5694 53.2954 78.1914 53.904 77.4697C54.5125 76.7481 54.794 75.7376 54.7487 74.4384L54.5253 68.0423L57.1737 67.9498L57.6065 80.3423L55.2579 80.4243L54.9821 78.2576C54.6258 79.0372 54.0807 79.6649 53.3468 80.1408C52.6291 80.5995 51.7872 80.8457 50.8211 80.8794ZM65.9325 80.0515C64.7166 80.094 63.7403 79.8362 63.0037 79.2783C62.2665 78.7036 61.8715 77.6585 61.8186 76.1427L61.6048 70.0214L59.4811 70.0956L59.4034 67.872L61.5271 67.7978L61.742 64.6384L64.0656 64.5572L64.1755 67.7053L67.6734 67.5832L67.7511 69.8068L64.2532 69.929L64.4669 76.0502C64.4908 76.7332 64.6489 77.2029 64.9414 77.4595C65.25 77.6989 65.7623 77.8061 66.4786 77.7811L67.9027 77.7314L67.9812 79.98L65.9325 80.0515ZM76.0868 79.9971C74.9042 80.0384 73.8289 79.8091 72.8608 79.3093C71.9089 78.7922 71.1412 78.0602 70.5578 77.1133C69.9738 76.1498 69.6591 75.0184 69.6138 73.7192C69.5684 72.42 69.8037 71.2777 70.3196 70.2925C70.8516 69.29 71.583 68.5056 72.5138 67.9395C73.444 67.3566 74.4921 67.0449 75.6581 67.0042C76.8407 66.9629 77.908 67.2008 78.86 67.7178C79.828 68.2177 80.604 68.9494 81.188 69.9129C81.788 70.8592 82.1108 71.982 82.1561 73.2812C82.2015 74.5804 81.9582 75.7313 81.4262 76.7338C80.9102 77.7191 80.1872 78.5031 79.2569 79.0859C78.3261 79.6521 77.2694 79.9558 76.0868 79.9971ZM76.0074 77.7235C76.6404 77.7014 77.2178 77.5228 77.7398 77.1877C78.2784 76.852 78.7035 76.3702 79.0151 75.7423C79.3261 75.0977 79.4654 74.3091 79.4328 73.3763C79.4002 72.4435 79.2066 71.6748 78.8519 71.0702C78.5134 70.4483 78.0637 69.9887 77.503 69.6914C76.9589 69.3935 76.3704 69.2557 75.7375 69.2778C75.1045 69.2999 74.5188 69.4788 73.9802 69.8144C73.4582 70.1495 73.0417 70.6394 72.7307 71.2839C72.4191 71.9119 72.2795 72.6922 72.3121 73.625C72.3447 74.5577 72.5386 75.3348 72.8938 75.9561C73.2485 76.5607 73.6978 77.012 74.2419 77.3099C74.786 77.6077 75.3745 77.7456 76.0074 77.7235ZM84.9967 79.3858L84.564 66.9933L86.9125 66.9113L87.1985 68.6524C87.5761 68.0055 88.0834 67.4875 88.7202 67.0984C89.3736 66.7086 90.1334 66.4987 90.9996 66.4684C92.965 66.3998 94.3579 67.1266 95.1782 68.6489C95.6029 67.917 96.1828 67.3297 96.9178 66.8871C97.6694 66.444 98.4867 66.207 99.3695 66.1761C100.919 66.122 102.151 66.546 103.066 67.4479C103.981 68.3498 104.471 69.7252 104.536 71.5741L104.785 78.6948L102.136 78.7873L101.897 71.9414C101.813 69.5429 100.855 68.3756 99.0232 68.4396C98.0905 68.4722 97.3365 68.8487 96.7613 69.5692C96.2027 70.2892 95.9462 71.2987 95.9915 72.5979L96.2149 78.994L93.5665 79.0865L93.3274 72.2407C93.2437 69.8422 92.2774 68.6752 90.4285 68.7397C89.5124 68.7717 88.7667 69.148 88.1915 69.8685C87.633 70.5884 87.3764 71.598 87.4217 72.8972L87.6451 79.2933L84.9967 79.3858ZM111.851 78.7482C110.802 78.7848 109.93 78.6402 109.234 78.3142C108.539 77.9883 108.015 77.548 107.662 76.9933C107.309 76.422 107.12 75.7948 107.096 75.1119C107.055 73.9126 107.488 72.9469 108.396 72.2148C109.304 71.4826 110.625 71.0863 112.357 71.0258L115.605 70.9124L115.597 70.6875C115.563 69.7215 115.272 69.0062 114.722 68.5418C114.189 68.0768 113.506 67.8588 112.673 67.8879C111.94 67.9135 111.305 68.1191 110.768 68.5048C110.247 68.8732 109.941 69.4092 109.849 70.1128L107.2 70.2053C107.252 69.3029 107.525 68.5263 108.019 67.8753C108.53 67.2071 109.179 66.6924 109.967 66.3314C110.771 65.9531 111.656 65.7471 112.622 65.7134C114.354 65.6529 115.711 66.0641 116.692 66.9471C117.673 67.8133 118.191 69.0294 118.246 70.5951L118.512 78.2154L116.213 78.2957L115.914 76.1798C115.588 76.875 115.1 77.4674 114.45 77.957C113.8 78.4467 112.934 78.7104 111.851 78.7482ZM112.301 76.5812C113.017 76.5562 113.611 76.3687 114.082 76.0187C114.57 75.6514 114.937 75.18 115.184 74.6044C115.447 74.0282 115.6 73.3974 115.643 72.7122L112.695 72.8151C111.645 72.8518 110.902 73.0612 110.465 73.4433C110.045 73.8249 109.844 74.2905 109.864 74.8402C109.883 75.4065 110.107 75.849 110.535 76.1675C110.979 76.4689 111.568 76.6068 112.301 76.5812ZM126.313 77.943C125.097 77.9855 124.12 77.7277 123.384 77.1697C122.647 76.5951 122.252 75.5499 122.199 74.0342L121.985 67.9129L119.861 67.9871L119.784 65.7634L121.907 65.6893L122.122 62.5299L124.446 62.4487L124.556 65.5968L128.054 65.4747L128.131 67.6983L124.633 67.8204L124.847 73.9417C124.871 74.6246 125.029 75.0944 125.322 75.351C125.63 75.5904 126.142 75.6976 126.859 75.6726L128.283 75.6228L128.361 77.8715L126.313 77.943ZM136.467 77.8886C135.251 77.9311 134.159 77.7024 133.191 77.2025C132.239 76.6854 131.48 75.9531 130.913 75.0057C130.346 74.0582 130.04 72.9432 129.996 71.6606C129.95 70.3614 130.169 69.2114 130.651 68.2107C131.149 67.2093 131.855 66.4175 132.769 65.8353C133.699 65.2525 134.789 64.9393 136.038 64.8956C137.254 64.8532 138.321 65.0911 139.24 65.6093C140.158 66.1109 140.883 66.8027 141.414 67.6847C141.945 68.5667 142.229 69.5491 142.267 70.6317C142.273 70.7983 142.271 70.9818 142.261 71.1823C142.268 71.3655 142.267 71.574 142.258 71.8078L132.614 72.1446C132.739 73.3409 133.163 74.2434 133.884 74.8519C134.622 75.4432 135.457 75.7225 136.39 75.6899C137.14 75.6638 137.759 75.4754 138.247 75.1248C138.751 74.757 139.118 74.2772 139.347 73.6855L141.995 73.593C141.703 74.7706 141.071 75.7683 140.099 76.5861C139.143 77.4032 137.933 77.8374 136.467 77.8886ZM136.089 67.0702C135.206 67.101 134.433 67.3949 133.769 67.9517C133.104 68.4919 132.715 69.2893 132.601 70.3439L139.597 70.0996C139.513 69.1353 139.145 68.381 138.492 67.8368C137.84 67.2926 137.039 67.037 136.089 67.0702ZM150.668 77.3927C149.469 77.4346 148.401 77.1883 147.465 76.654C146.529 76.1197 145.786 75.3702 145.235 74.4055C144.685 73.4408 144.388 72.3338 144.344 71.0845C144.3 69.8353 144.52 68.7186 145.002 67.7345C145.484 66.7338 146.174 65.9425 147.071 65.3609C147.984 64.762 149.04 64.4416 150.239 64.3997C151.222 64.3654 152.086 64.527 152.833 64.8845C153.596 65.2414 154.198 65.7624 154.638 66.4474L154.377 58.952L157.025 58.8595L157.653 76.8486L155.28 76.9315L154.938 75.0172C154.558 75.6142 154.027 76.1497 153.343 76.6239C152.659 77.098 151.767 77.3543 150.668 77.3927ZM151.062 75.0775C152.195 75.038 153.106 74.6142 153.795 73.8064C154.5 72.9979 154.831 71.9774 154.788 70.7448C154.745 69.4956 154.343 68.5007 153.584 67.7601C152.84 67.0022 151.902 66.6431 150.769 66.6826C149.637 66.7222 148.717 67.1462 148.012 67.9546C147.306 68.7464 146.975 69.7669 147.018 71.0162C147.047 71.8323 147.239 72.5511 147.594 73.1724C147.949 73.7937 148.424 74.2774 149.02 74.6235C149.632 74.9523 150.313 75.1037 151.062 75.0775ZM166.908 76.5254L166.297 59.0361L172.418 58.8223C173.784 58.7746 174.925 58.9682 175.84 59.4032C176.756 59.8215 177.444 60.4229 177.905 61.2073C178.382 61.9744 178.638 62.8577 178.673 63.8571C178.706 64.8065 178.52 65.6885 178.115 66.5032C177.726 67.3006 177.089 67.9482 176.206 68.446C175.323 68.9437 174.182 69.2171 172.783 69.2659L169.31 69.3872L169.556 76.4329L166.908 76.5254ZM169.234 67.2135L172.582 67.0966C173.831 67.053 174.713 66.7554 175.227 66.2038C175.758 65.6349 176.007 64.8841 175.974 63.9513C175.941 62.9852 175.64 62.2453 175.071 61.7315C174.519 61.2004 173.618 60.9567 172.369 61.0003L169.021 61.1172L169.234 67.2135ZM184.903 76.1972C183.853 76.2338 182.981 76.0892 182.286 75.7632C181.591 75.4373 181.067 74.997 180.714 74.4423C180.361 73.8709 180.172 73.2438 180.148 72.5609C180.106 71.3616 180.539 70.3959 181.448 69.6638C182.356 68.9316 183.676 68.5353 185.409 68.4748L188.657 68.3614L188.649 68.1365C188.615 67.1705 188.323 66.4552 187.773 65.9908C187.24 65.5258 186.557 65.3078 185.724 65.3369C184.991 65.3625 184.357 65.5681 183.82 65.9537C183.299 66.3221 182.992 66.8582 182.9 67.5618L180.252 67.6543C180.304 66.7519 180.577 65.9753 181.071 65.3243C181.581 64.6561 182.23 64.1414 183.018 63.7804C183.822 63.4021 184.707 63.1961 185.673 63.1623C187.406 63.1018 188.763 63.5131 189.744 64.396C190.725 65.2623 191.243 66.4783 191.297 68.044L191.563 75.6644L189.265 75.7447L188.966 73.6288C188.64 74.3239 188.152 74.9163 187.502 75.406C186.852 75.8956 185.985 76.1594 184.903 76.1972ZM185.352 74.0302C186.069 74.0051 186.663 73.8176 187.134 73.4676C187.621 73.1004 187.989 72.629 188.235 72.0533C188.499 71.4771 188.652 70.8464 188.694 70.1612L185.746 70.2641C184.697 70.3008 183.954 70.5102 183.517 70.8923C183.097 71.2739 182.896 71.7395 182.915 72.2892C182.935 72.8555 183.159 73.2979 183.587 73.6165C184.031 73.9179 184.62 74.0558 185.352 74.0302ZM195.662 81.0246L198.408 74.3998L197.683 74.4251L192.389 63.228L195.262 63.1277L199.38 72.1645L203.032 62.8563L205.831 62.7586L198.46 80.9269L195.662 81.0246ZM212.886 75.22C211.703 75.2613 210.628 75.032 209.66 74.5322C208.708 74.0151 207.94 73.2831 207.357 72.3362C206.773 71.3727 206.458 70.2413 206.413 68.9421C206.367 67.6429 206.603 66.5006 207.118 65.5154C207.65 64.5128 208.382 63.7285 209.313 63.1623C210.243 62.5795 211.291 62.2678 212.457 62.227C213.64 62.1857 214.707 62.4236 215.659 62.9407C216.627 63.4406 217.403 64.1723 217.987 65.1358C218.587 66.0821 218.91 67.2049 218.955 68.5041C219 69.8033 218.757 70.9542 218.225 71.9567C217.709 72.9419 216.986 73.726 216.056 74.3088C215.125 74.875 214.068 75.1787 212.886 75.22ZM212.806 72.9464C213.439 72.9243 214.017 72.7457 214.539 72.4106C215.077 72.0749 215.502 71.5931 215.814 70.9652C216.125 70.3206 216.264 69.5319 216.232 68.5992C216.199 67.6664 216.005 66.8977 215.651 66.2931C215.312 65.6712 214.863 65.2116 214.302 64.9143C213.758 64.6164 213.169 64.4785 212.536 64.5007C211.903 64.5228 211.318 64.7016 210.779 65.0373C210.257 65.3724 209.841 65.8622 209.53 66.5068C209.218 67.1347 209.078 67.9151 209.111 68.8478C209.144 69.7806 209.337 70.5576 209.693 71.179C210.047 71.7836 210.497 72.2349 211.041 72.5327C211.585 72.8306 212.173 72.9685 212.806 72.9464ZM226.378 74.7488C224.879 74.8012 223.68 74.3761 222.782 73.4736C221.899 72.5705 221.426 71.1945 221.362 69.3456L221.113 62.2249L223.761 62.1325L224 68.9783C224.084 71.3768 225.109 72.5418 227.074 72.4731C228.057 72.4388 228.853 72.0608 229.461 71.3392C230.07 70.6175 230.351 69.607 230.306 68.3078L230.082 61.9117L232.731 61.8192L233.164 74.2117L230.815 74.2937L230.539 72.127C230.183 72.9066 229.638 73.5343 228.904 74.0102C228.186 74.4689 227.344 74.7151 226.378 74.7488ZM241.49 73.9209C240.274 73.9634 239.297 73.7056 238.561 73.1477C237.824 72.5731 237.429 71.5279 237.376 70.0121L237.162 63.8909L235.038 63.965L234.961 61.7414L237.084 61.6672L237.299 58.5078L239.623 58.4266L239.733 61.5747L243.231 61.4526L243.308 63.6762L239.81 63.7984L240.024 69.9196C240.048 70.6026 240.206 71.0723 240.499 71.3289C240.807 71.5683 241.32 71.6755 242.036 71.6505L243.46 71.6008L243.538 73.8494L241.49 73.9209ZM251.112 73.8851C249.546 73.9398 248.242 73.6018 247.199 72.871C246.156 72.1403 245.538 71.1446 245.344 69.884L248.017 69.7906C248.17 70.3523 248.504 70.8326 249.018 71.2316C249.531 71.6139 250.196 71.7908 251.013 71.7623C251.812 71.7344 252.389 71.5474 252.744 71.2015C253.099 70.8556 253.269 70.4661 253.254 70.033C253.231 69.4001 252.958 68.9843 252.435 68.7858C251.927 68.5701 251.22 68.3863 250.314 68.2345C249.609 68.109 248.903 67.9336 248.194 67.7082C247.503 67.4822 246.916 67.1524 246.434 66.719C245.968 66.2683 245.721 65.6516 245.694 64.8687C245.656 63.786 246.041 62.872 246.849 62.1267C247.656 61.3648 248.809 60.9576 250.308 60.9052C251.691 60.857 252.818 61.1511 253.691 61.7877C254.58 62.4237 255.121 63.3471 255.314 64.5578L252.765 64.6468C252.663 64.1167 252.399 63.709 251.972 63.4237C251.562 63.1378 251.015 63.0068 250.332 63.0307C249.666 63.054 249.155 63.2136 248.798 63.5095C248.441 63.7888 248.27 64.145 248.285 64.5781C248.3 65.0112 248.562 65.3439 249.07 65.5763C249.596 65.8081 250.278 66.0094 251.118 66.1802C251.957 66.3343 252.731 66.5241 253.439 66.7495C254.163 66.9577 254.75 67.2874 255.2 67.7387C255.649 68.19 255.889 68.8653 255.921 69.7648C255.977 70.8968 255.568 71.8533 254.695 72.6343C253.839 73.4147 252.644 73.8316 251.112 73.8851Z" fill="#03413F"/>
</g>
<defs>
<filter id="filter0_dd_108_706" x="-0.445679" y="-0.445679" width="285.321" height="113.641" filterUnits="userSpaceOnUse" color-interpolation-filters="sRGB">
<feFlood flood-opacity="0" result="BackgroundImageFix"/>
<feColorMatrix in="SourceAlpha" type="matrix" values="0 0 0 0 0 0 0 0 0 0 0 0 0 0 0 0 0 0 127 0" result="hardAlpha"/>
<feMorphology radius="2" operator="dilate" in="SourceAlpha" result="effect1_dropShadow_108_706"/>
<feOffset/>
<feComposite in2="hardAlpha" operator="out"/>
<feColorMatrix type="matrix" values="0 0 0 0 1 0 0 0 0 1 0 0 0 0 1 0 0 0 0.4 0"/>
<feBlend mode="normal" in2="BackgroundImageFix" result="effect1_dropShadow_108_706"/>
<feColorMatrix in="SourceAlpha" type="matrix" values="0 0 0 0 0 0 0 0 0 0 0 0 0 0 0 0 0 0 127 0" result="hardAlpha"/>
<feOffset dy="0.4"/>
<feGaussianBlur stdDeviation="0.4"/>
<feComposite in2="hardAlpha" operator="out"/>
<feColorMatrix type="matrix" values="0 0 0 0 0 0 0 0 0 0 0 0 0 0 0 0 0 0 0.04 0"/>
<feBlend mode="normal" in2="effect1_dropShadow_108_706" result="effect2_dropShadow_108_706"/>
<feBlend mode="normal" in="SourceGraphic" in2="effect2_dropShadow_108_706" result="shape"/>
</filter>
</defs>
</svg>
