<svg width="277" height="103" viewBox="0 0 277 103" fill="none" xmlns="http://www.w3.org/2000/svg">
<g filter="url(#filter0_dd_108_700)">
<rect x="2.92977" y="9.45538" width="271.096" height="84" rx="13" fill="white"/>
<rect x="3.17977" y="9.70538" width="270.596" height="83.5" rx="12.75" stroke="#F5FAEF" stroke-width="0.5"/>
<path d="M31.3948 48.4554V36.7894H27.4618V35.1554H37.3228V36.7894H33.4088V48.4554H31.3948ZM38.8915 48.4554V34.7754H40.9055V40.5514C41.2222 40.0067 41.6592 39.5824 42.2165 39.2784C42.7865 38.9617 43.4135 38.8034 44.0975 38.8034C45.2249 38.8034 46.1115 39.158 46.7575 39.8674C47.4035 40.5767 47.7265 41.6344 47.7265 43.0404V48.4554H45.7315V43.2494C45.7315 41.4254 45.0032 40.5134 43.5465 40.5134C42.7865 40.5134 42.1532 40.7794 41.6465 41.3114C41.1525 41.8434 40.9055 42.6034 40.9055 43.5914V48.4554H38.8915ZM54.2666 48.6834C53.3419 48.6834 52.5186 48.4807 51.7966 48.0754C51.0872 47.6574 50.5299 47.081 50.1246 46.3464C49.7192 45.6117 49.5166 44.7567 49.5166 43.7814C49.5166 42.7934 49.7129 41.9257 50.1056 41.1784C50.5109 40.431 51.0682 39.8484 51.7776 39.4304C52.4996 39.0124 53.3356 38.8034 54.2856 38.8034C55.2102 38.8034 56.0146 39.0124 56.6986 39.4304C57.3826 39.8357 57.9146 40.3804 58.2946 41.0644C58.6746 41.7484 58.8646 42.502 58.8646 43.3254C58.8646 43.452 58.8582 43.5914 58.8456 43.7434C58.8456 43.8827 58.8392 44.041 58.8266 44.2184H51.4926C51.5559 45.1304 51.8536 45.827 52.3856 46.3084C52.9302 46.777 53.5572 47.0114 54.2666 47.0114C54.8366 47.0114 55.3116 46.8847 55.6916 46.6314C56.0842 46.3654 56.3756 46.0107 56.5656 45.5674H58.5796C58.3262 46.454 57.8196 47.195 57.0596 47.7904C56.3122 48.3857 55.3812 48.6834 54.2666 48.6834ZM54.2666 40.4564C53.5952 40.4564 52.9999 40.659 52.4806 41.0644C51.9612 41.457 51.6446 42.0524 51.5306 42.8504H56.8506C56.8126 42.1157 56.5529 41.533 56.0716 41.1024C55.5902 40.6717 54.9886 40.4564 54.2666 40.4564ZM65.3374 48.4554V35.1554H73.6784V36.7894H67.3514V40.9884H72.5954V42.6034H67.3514V48.4554H65.3374ZM78.8148 48.6834C77.6748 48.6834 76.7755 48.3287 76.1168 47.6194C75.4708 46.91 75.1478 45.8524 75.1478 44.4464V39.0314H77.1618V44.2374C77.1618 46.0614 77.9091 46.9734 79.4038 46.9734C80.1511 46.9734 80.7655 46.7074 81.2468 46.1754C81.7281 45.6434 81.9688 44.8834 81.9688 43.8954V39.0314H83.9828V48.4554H82.1968L82.0448 46.8024C81.7535 47.385 81.3228 47.8474 80.7528 48.1894C80.1955 48.5187 79.5495 48.6834 78.8148 48.6834ZM90.2568 48.4554C89.3322 48.4554 88.5975 48.2337 88.0528 47.7904C87.5082 47.3344 87.2358 46.53 87.2358 45.3774V40.7224H85.6208V39.0314H87.2358L87.4828 36.6374H89.2498V39.0314H91.9098V40.7224H89.2498V45.3774C89.2498 45.8967 89.3575 46.2577 89.5728 46.4604C89.8008 46.6504 90.1872 46.7454 90.7318 46.7454H91.8148V48.4554H90.2568ZM97.2235 48.6834C96.0835 48.6834 95.1841 48.3287 94.5255 47.6194C93.8795 46.91 93.5565 45.8524 93.5565 44.4464V39.0314H95.5705V44.2374C95.5705 46.0614 96.3178 46.9734 97.8125 46.9734C98.5598 46.9734 99.1741 46.7074 99.6555 46.1754C100.137 45.6434 100.377 44.8834 100.377 43.8954V39.0314H102.391V48.4554H100.605L100.453 46.8024C100.162 47.385 99.7315 47.8474 99.1615 48.1894C98.6041 48.5187 97.9581 48.6834 97.2235 48.6834ZM104.714 48.4554V39.0314H106.519L106.69 40.8174C107.019 40.1967 107.475 39.709 108.058 39.3544C108.653 38.987 109.369 38.8034 110.205 38.8034V40.9124H109.654C109.096 40.9124 108.596 41.0074 108.153 41.1974C107.722 41.3747 107.374 41.685 107.108 42.1284C106.854 42.559 106.728 43.1607 106.728 43.9334V48.4554H104.714ZM115.84 48.6834C114.915 48.6834 114.092 48.4807 113.37 48.0754C112.66 47.6574 112.103 47.081 111.698 46.3464C111.292 45.6117 111.09 44.7567 111.09 43.7814C111.09 42.7934 111.286 41.9257 111.679 41.1784C112.084 40.431 112.641 39.8484 113.351 39.4304C114.073 39.0124 114.909 38.8034 115.859 38.8034C116.783 38.8034 117.588 39.0124 118.272 39.4304C118.956 39.8357 119.488 40.3804 119.868 41.0644C120.248 41.7484 120.438 42.502 120.438 43.3254C120.438 43.452 120.431 43.5914 120.419 43.7434C120.419 43.8827 120.412 44.041 120.4 44.2184H113.066C113.129 45.1304 113.427 45.827 113.959 46.3084C114.503 46.777 115.13 47.0114 115.84 47.0114C116.41 47.0114 116.885 46.8847 117.265 46.6314C117.657 46.3654 117.949 46.0107 118.139 45.5674H120.153C119.899 46.454 119.393 47.195 118.633 47.7904C117.885 48.3857 116.954 48.6834 115.84 48.6834ZM115.84 40.4564C115.168 40.4564 114.573 40.659 114.054 41.0644C113.534 41.457 113.218 42.0524 113.104 42.8504H118.424C118.386 42.1157 118.126 41.533 117.645 41.1024C117.163 40.6717 116.562 40.4564 115.84 40.4564ZM131.242 48.6834C130.343 48.6834 129.532 48.4807 128.81 48.0754C128.101 47.6574 127.537 47.081 127.119 46.3464C126.701 45.599 126.492 44.7314 126.492 43.7434C126.492 42.7554 126.701 41.894 127.119 41.1594C127.55 40.412 128.126 39.8357 128.848 39.4304C129.57 39.0124 130.375 38.8034 131.261 38.8034C132.161 38.8034 132.965 39.0124 133.674 39.4304C134.396 39.8357 134.966 40.412 135.384 41.1594C135.815 41.894 136.03 42.7554 136.03 43.7434C136.03 44.7314 135.815 45.599 135.384 46.3464C134.966 47.081 134.396 47.6574 133.674 48.0754C132.952 48.4807 132.142 48.6834 131.242 48.6834ZM131.242 46.9544C131.724 46.9544 132.167 46.834 132.572 46.5934C132.99 46.3527 133.326 45.998 133.579 45.5294C133.833 45.048 133.959 44.4527 133.959 43.7434C133.959 43.034 133.833 42.445 133.579 41.9764C133.339 41.495 133.009 41.134 132.591 40.8934C132.186 40.6527 131.743 40.5324 131.261 40.5324C130.78 40.5324 130.33 40.6527 129.912 40.8934C129.507 41.134 129.178 41.495 128.924 41.9764C128.671 42.445 128.544 43.034 128.544 43.7434C128.544 44.4527 128.671 45.048 128.924 45.5294C129.178 45.998 129.507 46.3527 129.912 46.5934C130.318 46.834 130.761 46.9544 131.242 46.9544ZM138.443 48.4554V40.7224H137.094V39.0314H138.443V37.6634C138.443 36.6374 138.697 35.9027 139.203 35.4594C139.723 35.0034 140.451 34.7754 141.388 34.7754H142.376V36.4854H141.692C141.249 36.4854 140.932 36.5804 140.742 36.7704C140.552 36.9477 140.457 37.2517 140.457 37.6824V39.0314H142.623V40.7224H140.457V48.4554H138.443ZM148.92 48.4554V35.1554H153.499C154.55 35.1554 155.411 35.3327 156.083 35.6874C156.767 36.042 157.273 36.5234 157.603 37.1314C157.932 37.7267 158.097 38.3917 158.097 39.1264C158.097 39.9497 157.875 40.697 157.432 41.3684C157.001 42.0397 156.323 42.521 155.399 42.8124L158.23 48.4554H155.893L153.309 43.0974H150.934V48.4554H148.92ZM150.934 41.5774H153.385C154.297 41.5774 154.962 41.3557 155.38 40.9124C155.81 40.469 156.026 39.8927 156.026 39.1834C156.026 38.474 155.817 37.9104 155.399 37.4924C154.981 37.0617 154.303 36.8464 153.366 36.8464H150.934V41.5774ZM163.996 48.6834C163.097 48.6834 162.286 48.4807 161.564 48.0754C160.855 47.6574 160.291 47.081 159.873 46.3464C159.455 45.599 159.246 44.7314 159.246 43.7434C159.246 42.7554 159.455 41.894 159.873 41.1594C160.304 40.412 160.88 39.8357 161.602 39.4304C162.324 39.0124 163.129 38.8034 164.015 38.8034C164.915 38.8034 165.719 39.0124 166.428 39.4304C167.15 39.8357 167.72 40.412 168.138 41.1594C168.569 41.894 168.784 42.7554 168.784 43.7434C168.784 44.7314 168.569 45.599 168.138 46.3464C167.72 47.081 167.15 47.6574 166.428 48.0754C165.706 48.4807 164.896 48.6834 163.996 48.6834ZM163.996 46.9544C164.478 46.9544 164.921 46.834 165.326 46.5934C165.744 46.3527 166.08 45.998 166.333 45.5294C166.587 45.048 166.713 44.4527 166.713 43.7434C166.713 43.034 166.587 42.445 166.333 41.9764C166.093 41.495 165.763 41.134 165.345 40.8934C164.94 40.6527 164.497 40.5324 164.015 40.5324C163.534 40.5324 163.084 40.6527 162.666 40.8934C162.261 41.134 161.932 41.495 161.678 41.9764C161.425 42.445 161.298 43.034 161.298 43.7434C161.298 44.4527 161.425 45.048 161.678 45.5294C161.932 45.998 162.261 46.3527 162.666 46.5934C163.072 46.834 163.515 46.9544 163.996 46.9544ZM174.303 48.4554C173.378 48.4554 172.644 48.2337 172.099 47.7904C171.554 47.3344 171.282 46.53 171.282 45.3774V40.7224H169.667V39.0314H171.282L171.529 36.6374H173.296V39.0314H175.956V40.7224H173.296V45.3774C173.296 45.8967 173.404 46.2577 173.619 46.4604C173.847 46.6504 174.233 46.7454 174.778 46.7454H175.861V48.4554H174.303ZM180.985 48.6834C180.187 48.6834 179.528 48.5504 179.009 48.2844C178.489 48.0184 178.103 47.67 177.85 47.2394C177.596 46.796 177.47 46.3147 177.47 45.7954C177.47 44.8834 177.824 44.1614 178.534 43.6294C179.243 43.0974 180.256 42.8314 181.574 42.8314H184.044V42.6604C184.044 41.9257 183.841 41.3747 183.436 41.0074C183.043 40.64 182.53 40.4564 181.897 40.4564C181.339 40.4564 180.852 40.5957 180.434 40.8744C180.028 41.1404 179.781 41.5394 179.693 42.0714H177.679C177.742 41.3874 177.97 40.8047 178.363 40.3234C178.768 39.8294 179.275 39.4557 179.883 39.2024C180.503 38.9364 181.181 38.8034 181.916 38.8034C183.233 38.8034 184.253 39.1517 184.975 39.8484C185.697 40.5324 186.058 41.4697 186.058 42.6604V48.4554H184.31L184.139 46.8404C183.873 47.3597 183.486 47.7967 182.98 48.1514C182.473 48.506 181.808 48.6834 180.985 48.6834ZM181.384 47.0494C181.928 47.0494 182.384 46.9227 182.752 46.6694C183.132 46.4034 183.423 46.055 183.626 45.6244C183.841 45.1937 183.974 44.7187 184.025 44.1994H181.783C180.985 44.1994 180.415 44.3387 180.073 44.6174C179.743 44.896 179.579 45.2444 179.579 45.6624C179.579 46.093 179.737 46.435 180.054 46.6884C180.383 46.929 180.826 47.0494 181.384 47.0494ZM191.932 48.4554C191.008 48.4554 190.273 48.2337 189.728 47.7904C189.184 47.3344 188.911 46.53 188.911 45.3774V40.7224H187.296V39.0314H188.911L189.158 36.6374H190.925V39.0314H193.585V40.7224H190.925V45.3774C190.925 45.8967 191.033 46.2577 191.248 46.4604C191.476 46.6504 191.863 46.7454 192.407 46.7454H193.49V48.4554H191.932ZM196.562 37.2454C196.182 37.2454 195.865 37.1314 195.612 36.9034C195.371 36.6627 195.251 36.365 195.251 36.0104C195.251 35.6557 195.371 35.3644 195.612 35.1364C195.865 34.8957 196.182 34.7754 196.562 34.7754C196.942 34.7754 197.252 34.8957 197.493 35.1364C197.746 35.3644 197.873 35.6557 197.873 36.0104C197.873 36.365 197.746 36.6627 197.493 36.9034C197.252 37.1314 196.942 37.2454 196.562 37.2454ZM195.555 48.4554V39.0314H197.569V48.4554H195.555ZM204.396 48.6834C203.496 48.6834 202.686 48.4807 201.964 48.0754C201.254 47.6574 200.691 47.081 200.273 46.3464C199.855 45.599 199.646 44.7314 199.646 43.7434C199.646 42.7554 199.855 41.894 200.273 41.1594C200.703 40.412 201.28 39.8357 202.002 39.4304C202.724 39.0124 203.528 38.8034 204.415 38.8034C205.314 38.8034 206.118 39.0124 206.828 39.4304C207.55 39.8357 208.12 40.412 208.538 41.1594C208.968 41.894 209.184 42.7554 209.184 43.7434C209.184 44.7314 208.968 45.599 208.538 46.3464C208.12 47.081 207.55 47.6574 206.828 48.0754C206.106 48.4807 205.295 48.6834 204.396 48.6834ZM204.396 46.9544C204.877 46.9544 205.32 46.834 205.726 46.5934C206.144 46.3527 206.479 45.998 206.733 45.5294C206.986 45.048 207.113 44.4527 207.113 43.7434C207.113 43.034 206.986 42.445 206.733 41.9764C206.492 41.495 206.163 41.134 205.745 40.8934C205.339 40.6527 204.896 40.5324 204.415 40.5324C203.933 40.5324 203.484 40.6527 203.066 40.8934C202.66 41.134 202.331 41.495 202.078 41.9764C201.824 42.445 201.698 43.034 201.698 43.7434C201.698 44.4527 201.824 45.048 202.078 45.5294C202.331 45.998 202.66 46.3527 203.066 46.5934C203.471 46.834 203.914 46.9544 204.396 46.9544ZM211.122 48.4554V39.0314H212.908L213.06 40.6844C213.351 40.1017 213.775 39.6457 214.333 39.3164C214.903 38.9744 215.555 38.8034 216.29 38.8034C217.43 38.8034 218.323 39.158 218.969 39.8674C219.627 40.5767 219.957 41.6344 219.957 43.0404V48.4554H217.962V43.2494C217.962 41.4254 217.214 40.5134 215.72 40.5134C214.972 40.5134 214.352 40.7794 213.858 41.3114C213.376 41.8434 213.136 42.6034 213.136 43.5914V48.4554H211.122ZM225.281 48.6834C224.483 48.6834 223.824 48.5504 223.305 48.2844C222.786 48.0184 222.399 47.67 222.146 47.2394C221.893 46.796 221.766 46.3147 221.766 45.7954C221.766 44.8834 222.121 44.1614 222.83 43.6294C223.539 43.0974 224.553 42.8314 225.87 42.8314H228.34V42.6604C228.34 41.9257 228.137 41.3747 227.732 41.0074C227.339 40.64 226.826 40.4564 226.193 40.4564C225.636 40.4564 225.148 40.5957 224.73 40.8744C224.325 41.1404 224.078 41.5394 223.989 42.0714H221.975C222.038 41.3874 222.266 40.8047 222.659 40.3234C223.064 39.8294 223.571 39.4557 224.179 39.2024C224.8 38.9364 225.477 38.8034 226.212 38.8034C227.529 38.8034 228.549 39.1517 229.271 39.8484C229.993 40.5324 230.354 41.4697 230.354 42.6604V48.4554H228.606L228.435 46.8404C228.169 47.3597 227.783 47.7967 227.276 48.1514C226.769 48.506 226.104 48.6834 225.281 48.6834ZM225.68 47.0494C226.225 47.0494 226.681 46.9227 227.048 46.6694C227.428 46.4034 227.719 46.055 227.922 45.6244C228.137 45.1937 228.27 44.7187 228.321 44.1994H226.079C225.281 44.1994 224.711 44.3387 224.369 44.6174C224.04 44.896 223.875 45.2444 223.875 45.6624C223.875 46.093 224.033 46.435 224.35 46.6884C224.679 46.929 225.123 47.0494 225.68 47.0494ZM232.462 48.4554V34.7754H234.476V48.4554H232.462ZM32.6678 66.6834C31.6925 66.6834 30.8375 66.5124 30.1028 66.1704C29.3682 65.8284 28.7918 65.3407 28.3738 64.7074C27.9685 64.074 27.7595 63.3204 27.7468 62.4464H29.8748C29.8875 63.1557 30.1345 63.7574 30.6158 64.2514C31.0972 64.7454 31.7748 64.9924 32.6488 64.9924C33.4215 64.9924 34.0232 64.8087 34.4538 64.4414C34.8972 64.0614 35.1188 63.58 35.1188 62.9974C35.1188 62.5287 35.0112 62.1487 34.7958 61.8574C34.5932 61.566 34.3082 61.3254 33.9408 61.1354C33.5862 60.9454 33.1745 60.7744 32.7058 60.6224C32.2372 60.4704 31.7432 60.3057 31.2238 60.1284C30.1978 59.7864 29.4252 59.343 28.9058 58.7984C28.3992 58.2537 28.1458 57.538 28.1458 56.6514C28.1332 55.904 28.3042 55.2517 28.6588 54.6944C29.0262 54.137 29.5328 53.7064 30.1788 53.4024C30.8375 53.0857 31.6038 52.9274 32.4778 52.9274C33.3392 52.9274 34.0928 53.0857 34.7388 53.4024C35.3975 53.719 35.9105 54.1624 36.2778 54.7324C36.6452 55.2897 36.8352 55.942 36.8478 56.6894H34.7198C34.7198 56.3474 34.6312 56.0244 34.4538 55.7204C34.2765 55.4037 34.0168 55.144 33.6748 54.9414C33.3328 54.7387 32.9148 54.6374 32.4208 54.6374C31.7875 54.6247 31.2618 54.783 30.8438 55.1124C30.4385 55.4417 30.2358 55.8977 30.2358 56.4804C30.2358 56.9997 30.3878 57.3987 30.6918 57.6774C30.9958 57.956 31.4138 58.1904 31.9458 58.3804C32.4778 58.5577 33.0858 58.7667 33.7698 59.0074C34.4285 59.2227 35.0175 59.4824 35.5368 59.7864C36.0562 60.0904 36.4678 60.4894 36.7718 60.9834C37.0885 61.4774 37.2468 62.1044 37.2468 62.8644C37.2468 63.5357 37.0758 64.1627 36.7338 64.7454C36.3918 65.3154 35.8788 65.784 35.1948 66.1514C34.5108 66.506 33.6685 66.6834 32.6678 66.6834ZM42.3248 66.6834C41.5268 66.6834 40.8681 66.5504 40.3488 66.2844C39.8294 66.0184 39.4431 65.67 39.1898 65.2394C38.9364 64.796 38.8098 64.3147 38.8098 63.7954C38.8098 62.8834 39.1644 62.1614 39.8738 61.6294C40.5831 61.0974 41.5964 60.8314 42.9138 60.8314H45.3838V60.6604C45.3838 59.9257 45.1811 59.3747 44.7758 59.0074C44.3831 58.64 43.8701 58.4564 43.2368 58.4564C42.6794 58.4564 42.1918 58.5957 41.7738 58.8744C41.3684 59.1404 41.1214 59.5394 41.0328 60.0714H39.0188C39.0821 59.3874 39.3101 58.8047 39.7028 58.3234C40.1081 57.8294 40.6148 57.4557 41.2228 57.2024C41.8434 56.9364 42.5211 56.8034 43.2558 56.8034C44.5731 56.8034 45.5928 57.1517 46.3148 57.8484C47.0368 58.5324 47.3978 59.4697 47.3978 60.6604V66.4554H45.6498L45.4788 64.8404C45.2128 65.3597 44.8264 65.7967 44.3198 66.1514C43.8131 66.506 43.1481 66.6834 42.3248 66.6834ZM42.7238 65.0494C43.2684 65.0494 43.7244 64.9227 44.0918 64.6694C44.4718 64.4034 44.7631 64.055 44.9658 63.6244C45.1811 63.1937 45.3141 62.7187 45.3648 62.1994H43.1228C42.3248 62.1994 41.7548 62.3387 41.4128 62.6174C41.0834 62.896 40.9188 63.2444 40.9188 63.6624C40.9188 64.093 41.0771 64.435 41.3938 64.6884C41.7231 64.929 42.1664 65.0494 42.7238 65.0494ZM51.8316 66.4554L48.2976 57.0314H50.4066L53.0286 64.5364L55.6506 57.0314H57.7406L54.2256 66.4554H51.8316ZM60.2957 55.2454C59.9157 55.2454 59.599 55.1314 59.3457 54.9034C59.105 54.6627 58.9847 54.365 58.9847 54.0104C58.9847 53.6557 59.105 53.3644 59.3457 53.1364C59.599 52.8957 59.9157 52.7754 60.2957 52.7754C60.6757 52.7754 60.986 52.8957 61.2267 53.1364C61.48 53.3644 61.6067 53.6557 61.6067 54.0104C61.6067 54.365 61.48 54.6627 61.2267 54.9034C60.986 55.1314 60.6757 55.2454 60.2957 55.2454ZM59.2887 66.4554V57.0314H61.3027V66.4554H59.2887ZM63.7214 66.4554V57.0314H65.5074L65.6594 58.6844C65.9507 58.1017 66.375 57.6457 66.9324 57.3164C67.5024 56.9744 68.1547 56.8034 68.8894 56.8034C70.0294 56.8034 70.9224 57.158 71.5684 57.8674C72.227 58.5767 72.5564 59.6344 72.5564 61.0404V66.4554H70.5614V61.2494C70.5614 59.4254 69.814 58.5134 68.3194 58.5134C67.572 58.5134 66.9514 58.7794 66.4574 59.3114C65.976 59.8434 65.7354 60.6034 65.7354 61.5914V66.4554H63.7214ZM78.5454 63.5674C78.0514 63.5674 77.5954 63.5104 77.1774 63.3964L76.3604 64.1944C76.4997 64.283 76.6707 64.359 76.8734 64.4224C77.076 64.4857 77.361 64.5427 77.7284 64.5934C78.0957 64.644 78.596 64.6947 79.2294 64.7454C80.4834 64.8594 81.389 65.1634 81.9464 65.6574C82.5037 66.1387 82.7824 66.7847 82.7824 67.5954C82.7824 68.1527 82.6304 68.6784 82.3264 69.1724C82.035 69.6791 81.5727 70.0844 80.9394 70.3884C80.3187 70.7051 79.5207 70.8634 78.5454 70.8634C77.228 70.8634 76.1577 70.6101 75.3344 70.1034C74.5237 69.6094 74.1184 68.8557 74.1184 67.8424C74.1184 67.4497 74.2197 67.0571 74.4224 66.6644C74.6377 66.2844 74.9734 65.9234 75.4294 65.5814C75.1634 65.4674 74.929 65.347 74.7264 65.2204C74.5364 65.081 74.3654 64.9417 74.2134 64.8024V64.3464L75.8474 62.6744C75.1127 62.041 74.7454 61.2114 74.7454 60.1854C74.7454 59.5647 74.891 59.001 75.1824 58.4944C75.4864 57.975 75.9234 57.5634 76.4934 57.2594C77.0634 56.9554 77.7474 56.8034 78.5454 56.8034C79.0774 56.8034 79.5714 56.8794 80.0274 57.0314H83.5424V58.3614L81.8704 58.4564C82.1744 58.9757 82.3264 59.552 82.3264 60.1854C82.3264 60.8187 82.1744 61.3887 81.8704 61.8954C81.579 62.402 81.1484 62.8074 80.5784 63.1114C80.021 63.4154 79.3434 63.5674 78.5454 63.5674ZM78.5454 61.9904C79.128 61.9904 79.5967 61.8384 79.9514 61.5344C80.3187 61.2177 80.5024 60.7744 80.5024 60.2044C80.5024 59.6217 80.3187 59.1784 79.9514 58.8744C79.5967 58.5704 79.128 58.4184 78.5454 58.4184C77.95 58.4184 77.4687 58.5704 77.1014 58.8744C76.7467 59.1784 76.5694 59.6217 76.5694 60.2044C76.5694 60.7744 76.7467 61.2177 77.1014 61.5344C77.4687 61.8384 77.95 61.9904 78.5454 61.9904ZM76.0184 67.6524C76.0184 68.1971 76.259 68.6024 76.7404 68.8684C77.2217 69.1471 77.8234 69.2864 78.5454 69.2864C79.242 69.2864 79.8057 69.1344 80.2364 68.8304C80.667 68.5391 80.8824 68.1464 80.8824 67.6524C80.8824 67.285 80.7367 66.9684 80.4454 66.7024C80.154 66.449 79.603 66.2907 78.7924 66.2274C78.1844 66.1894 77.646 66.1324 77.1774 66.0564C76.734 66.297 76.43 66.5567 76.2654 66.8354C76.1007 67.1141 76.0184 67.3864 76.0184 67.6524ZM88.8608 66.6834C87.6701 66.6834 86.6884 66.392 85.9158 65.8094C85.1431 65.2267 84.6998 64.454 84.5858 63.4914H86.6188C86.7201 63.922 86.9608 64.2957 87.3408 64.6124C87.7208 64.9164 88.2211 65.0684 88.8418 65.0684C89.4498 65.0684 89.8931 64.9417 90.1718 64.6884C90.4504 64.435 90.5898 64.1437 90.5898 63.8144C90.5898 63.333 90.3934 63.01 90.0008 62.8454C89.6208 62.668 89.0888 62.5097 88.4048 62.3704C87.8728 62.2564 87.3408 62.1044 86.8088 61.9144C86.2894 61.7244 85.8524 61.4584 85.4978 61.1164C85.1558 60.7617 84.9848 60.2867 84.9848 59.6914C84.9848 58.868 85.3014 58.184 85.9348 57.6394C86.5681 57.082 87.4548 56.8034 88.5948 56.8034C89.6461 56.8034 90.4948 57.0567 91.1408 57.5634C91.7994 58.07 92.1858 58.7857 92.2998 59.7104H90.3618C90.2984 59.305 90.1084 58.9884 89.7918 58.7604C89.4878 58.5324 89.0761 58.4184 88.5568 58.4184C88.0501 58.4184 87.6574 58.526 87.3788 58.7414C87.1001 58.944 86.9608 59.21 86.9608 59.5394C86.9608 59.8687 87.1508 60.1284 87.5308 60.3184C87.9234 60.5084 88.4364 60.6794 89.0698 60.8314C89.7031 60.9707 90.2858 61.1354 90.8178 61.3254C91.3624 61.5027 91.7994 61.7687 92.1288 62.1234C92.4581 62.478 92.6228 62.9974 92.6228 63.6814C92.6354 64.5427 92.2998 65.2584 91.6158 65.8284C90.9444 66.3984 90.0261 66.6834 88.8608 66.6834Z" fill="#03413F"/>
<path d="M191.684 66.715L185.435 68.9017L184.407 68.5423L190.657 66.356H185.149V65.8479H193.137V68.6423H191.684V66.715Z" fill="url(#paint0_linear_108_700)" fill-opacity="0.24"/>
</g>
<defs>
<filter id="filter0_dd_108_700" x="0.929775" y="7.45538" width="275.096" height="88" filterUnits="userSpaceOnUse" color-interpolation-filters="sRGB">
<feFlood flood-opacity="0" result="BackgroundImageFix"/>
<feColorMatrix in="SourceAlpha" type="matrix" values="0 0 0 0 0 0 0 0 0 0 0 0 0 0 0 0 0 0 127 0" result="hardAlpha"/>
<feMorphology radius="2" operator="dilate" in="SourceAlpha" result="effect1_dropShadow_108_700"/>
<feOffset/>
<feComposite in2="hardAlpha" operator="out"/>
<feColorMatrix type="matrix" values="0 0 0 0 1 0 0 0 0 1 0 0 0 0 1 0 0 0 0.4 0"/>
<feBlend mode="normal" in2="BackgroundImageFix" result="effect1_dropShadow_108_700"/>
<feColorMatrix in="SourceAlpha" type="matrix" values="0 0 0 0 0 0 0 0 0 0 0 0 0 0 0 0 0 0 127 0" result="hardAlpha"/>
<feOffset dy="0.4"/>
<feGaussianBlur stdDeviation="0.4"/>
<feComposite in2="hardAlpha" operator="out"/>
<feColorMatrix type="matrix" values="0 0 0 0 0 0 0 0 0 0 0 0 0 0 0 0 0 0 0.04 0"/>
<feBlend mode="normal" in2="effect1_dropShadow_108_700" result="effect2_dropShadow_108_700"/>
<feBlend mode="normal" in="SourceGraphic" in2="effect2_dropShadow_108_700" result="shape"/>
</filter>
<linearGradient id="paint0_linear_108_700" x1="188.772" y1="65.8479" x2="188.772" y2="68.9017" gradientUnits="userSpaceOnUse">
<stop stop-color="white"/>
<stop offset="1" stop-color="white" stop-opacity="0"/>
</linearGradient>
</defs>
</svg>
