<svg width="18" height="18" viewBox="0 0 18 18" fill="none" xmlns="http://www.w3.org/2000/svg">
<g clip-path="url(#clip0_108_942)">
<path d="M8.57142 1.42871C10.5121 1.42871 10.7543 1.43585 11.5157 1.47157C12.2764 1.50728 12.7943 1.62657 13.25 1.80371C13.7214 1.98514 14.1186 2.23085 14.5157 2.62728C14.8789 2.98435 15.16 3.41627 15.3393 3.893C15.5157 4.348 15.6357 4.86657 15.6714 5.62728C15.705 6.38871 15.7143 6.63085 15.7143 8.57157C15.7143 10.5123 15.7071 10.7544 15.6714 11.5159C15.6357 12.2766 15.5157 12.7944 15.3393 13.2501C15.1605 13.7271 14.8794 14.1592 14.5157 14.5159C14.1585 14.8789 13.7266 15.16 13.25 15.3394C12.795 15.5159 12.2764 15.6359 11.5157 15.6716C10.7543 15.7051 10.5121 15.7144 8.57142 15.7144C6.6307 15.7144 6.38856 15.7073 5.62713 15.6716C4.86642 15.6359 4.34856 15.5159 3.89284 15.3394C3.41593 15.1605 2.98393 14.8794 2.62713 14.5159C2.26385 14.1588 1.9828 13.7269 1.80356 13.2501C1.62642 12.7951 1.50713 12.2766 1.47142 11.5159C1.43784 10.7544 1.42856 10.5123 1.42856 8.57157C1.42856 6.63085 1.4357 6.38871 1.47142 5.62728C1.50713 4.86585 1.62642 4.34871 1.80356 3.893C1.9823 3.41598 2.26342 2.98394 2.62713 2.62728C2.98404 2.26388 3.41601 1.9828 3.89284 1.80371C4.34856 1.62657 4.8657 1.50728 5.62713 1.47157C6.38856 1.438 6.6307 1.42871 8.57142 1.42871ZM8.57142 5.00014C7.62421 5.00014 6.71581 5.37641 6.04603 6.04619C5.37626 6.71596 4.99999 7.62437 4.99999 8.57157C4.99999 9.51877 5.37626 10.4272 6.04603 11.0969C6.71581 11.7667 7.62421 12.143 8.57142 12.143C9.51862 12.143 10.427 11.7667 11.0968 11.0969C11.7666 10.4272 12.1428 9.51877 12.1428 8.57157C12.1428 7.62437 11.7666 6.71596 11.0968 6.04619C10.427 5.37641 9.51862 5.00014 8.57142 5.00014ZM13.2143 4.82157C13.2143 4.58477 13.1202 4.35767 12.9528 4.19022C12.7853 4.02278 12.5582 3.92871 12.3214 3.92871C12.0846 3.92871 11.8575 4.02278 11.6901 4.19022C11.5226 4.35767 11.4286 4.58477 11.4286 4.82157C11.4286 5.05837 11.5226 5.28547 11.6901 5.45291C11.8575 5.62036 12.0846 5.71443 12.3214 5.71443C12.5582 5.71443 12.7853 5.62036 12.9528 5.45291C13.1202 5.28547 13.2143 5.05837 13.2143 4.82157ZM8.57142 6.42871C9.13974 6.42871 9.68478 6.65448 10.0866 7.05634C10.4885 7.4582 10.7143 8.00325 10.7143 8.57157C10.7143 9.13989 10.4885 9.68493 10.0866 10.0868C9.68478 10.4887 9.13974 10.7144 8.57142 10.7144C8.00309 10.7144 7.45805 10.4887 7.05619 10.0868C6.65432 9.68493 6.42856 9.13989 6.42856 8.57157C6.42856 8.00325 6.65432 7.4582 7.05619 7.05634C7.45805 6.65448 8.00309 6.42871 8.57142 6.42871Z" fill="#013730"/>
</g>
<defs>
<clipPath id="clip0_108_942">
<rect width="17.1429" height="17.1429" fill="white"/>
</clipPath>
</defs>
</svg>
