<svg width="18" height="18" viewBox="0 0 18 18" fill="none" xmlns="http://www.w3.org/2000/svg">
<g clip-path="url(#clip0_108_944)">
<path d="M13.4161 15.5866H3.82014C2.55311 15.5866 1.52234 14.558 1.52234 13.2935V3.72175C1.52234 2.45728 2.55311 1.42871 3.82014 1.42871H13.4161C14.6828 1.42871 15.7135 2.45728 15.7135 3.72175V13.2939C15.7135 14.5584 14.6828 15.5866 13.4161 15.5866ZM6.31758 13.1331H6.32051V7.02615H4.42051V13.1331H6.31721H6.31758ZM5.36923 6.19208C5.51369 6.19227 5.65676 6.16396 5.79026 6.10877C5.92377 6.05358 6.04506 5.97259 6.14721 5.87044C6.24936 5.76829 6.33035 5.64699 6.38555 5.51349C6.44074 5.37999 6.46905 5.23691 6.46886 5.09245C6.46828 4.80098 6.35224 4.52163 6.14614 4.31553C5.94005 4.10944 5.66069 3.99339 5.36923 3.99281C5.07761 3.99291 4.79797 4.1088 4.59177 4.315C4.38557 4.5212 4.26969 4.80084 4.26959 5.09245C4.26969 5.38406 4.38557 5.6637 4.59177 5.8699C4.79797 6.0761 5.07761 6.19198 5.36923 6.19208ZM13.4271 13.1335V9.78549C13.4271 8.14043 13.07 6.87487 11.1505 6.87487C10.2278 6.87487 9.60842 7.38036 9.35384 7.86021H9.3282V7.02615H7.50879V13.1331H9.40549V10.1111C9.40549 9.31406 9.55677 8.543 10.5447 8.543C11.5161 8.543 11.5304 9.45435 11.5304 10.1624V13.1331H13.4271V13.1335Z" fill="#013730"/>
</g>
<defs>
<clipPath id="clip0_108_944">
<rect width="14.2857" height="14.2857" fill="white" transform="translate(1.42844 1.4292)"/>
</clipPath>
</defs>
</svg>
