<svg width="204" height="30" viewBox="0 0 204 30" fill="none" xmlns="http://www.w3.org/2000/svg">
<path d="M17.5859 0.00664328C17.5626 0.457946 17.9443 0.303621 18.1533 0.360033C23.8261 1.85331 27.5975 5.37579 29.1887 11.0137C31.5563 19.411 26.2021 27.9658 17.6323 29.6549C17.4216 29.6964 17.1843 29.6549 17.0151 29.8325C16.9969 29.8524 16.967 29.8938 16.972 29.8988C17.0083 29.9352 17.0471 29.9689 17.0881 30H12.7742C12.7942 29.9819 12.8131 29.9625 12.8306 29.9419C12.8439 29.9233 12.855 29.9033 12.8638 29.8822C12.7227 29.8061 12.5743 29.7444 12.4208 29.6981C5.94989 28.3707 1.93628 24.4798 0.308609 18.1002C0.272106 17.9575 0.383275 17.6141 0 17.7385V12.0973C0.0182512 12.1172 0.0331953 12.1404 0.0531057 12.1587C0.0730161 12.1769 0.099556 12.2001 0.107852 12.1951C0.273772 12.0989 0.273777 11.9296 0.320234 11.7704C1.85555 5.66339 5.68001 1.8428 11.7936 0.308588C11.918 0.277064 12.2914 0.386594 12.1105 0L17.5859 0.00664328ZM20.808 20.0315C21.1949 20.0084 21.5829 20.0112 21.9695 20.0399C22.6995 20.1394 22.7742 19.7826 22.7144 19.1787C22.5236 17.2656 21.553 15.8885 19.9038 14.961C18.7656 14.3222 17.5361 13.9207 16.2784 13.5955C14.8913 13.2387 13.4827 12.9551 12.1902 12.3013C11.3771 11.8915 10.7732 11.3323 10.7665 10.3501C10.7665 10.0182 10.6189 9.91708 10.3169 9.91874C9.37781 9.91874 8.4387 9.93533 7.49627 9.91874C7.08479 9.91045 6.98856 10.0962 6.99851 10.4679C7.01511 12.2498 7.5809 13.7648 9.0775 14.8383C10.3103 15.7226 11.7322 16.1656 13.1691 16.5654C14.5213 16.9387 15.9151 17.1728 17.2076 17.7518C17.9011 18.0621 18.6643 18.4155 18.8021 19.197C18.9564 20.0564 19.4226 20.0913 20.0697 20.0382C20.3103 20.0066 20.5591 20.0315 20.808 20.0315Z" fill="#333333"/>
<path d="M203.39 26.1885C202.147 26.1885 200.901 26.1603 199.66 26.2018C199.39 26.2294 199.119 26.182 198.874 26.0649C198.63 25.9478 198.423 25.7655 198.276 25.5381C196.194 22.7523 194.06 20.0031 191.971 17.2256C191.589 16.7279 191.337 16.5802 190.861 17.141C190.197 17.9179 189.483 18.6517 188.726 19.3378C188.248 19.7741 188.108 20.247 188.122 20.8659C188.157 22.3841 188.102 23.9038 188.148 25.4204C188.167 26.0591 187.947 26.2384 187.342 26.1969C186.653 26.1446 185.96 26.1446 185.271 26.1969C184.526 26.2616 184.294 26.0309 184.297 25.2511C184.332 19.205 184.317 13.1589 184.317 7.11277C184.317 6.53371 184.345 5.95133 184.309 5.37393C184.276 4.85792 184.488 4.69366 184.973 4.71025C185.746 4.73514 186.522 4.74841 187.295 4.71025C187.928 4.67541 188.153 4.86455 188.145 5.53985C188.108 8.49322 188.13 11.4483 188.13 14.4017V15.4237L192.417 10.9239C194.264 8.98485 196.109 7.04417 197.954 5.1018C198.107 4.93588 198.249 4.74504 198.49 4.74338C199.917 4.73509 201.344 4.74338 203 4.74338C202.109 5.67254 201.38 6.44412 200.64 7.20569C198.619 9.28522 196.595 11.3603 194.566 13.431C194.243 13.7629 194.068 13.9802 194.43 14.4481C197.289 18.1348 200.116 21.8481 202.957 25.5514C203.064 25.6925 203.137 25.9131 203.391 25.8633L203.39 26.1885Z" fill="#333333"/>
<path d="M130.893 15.6032C130.893 9.27001 135.764 4.50647 142.241 4.50647C148.648 4.50647 153.479 9.197 153.542 15.4754C153.605 21.7538 148.629 26.6169 142.119 26.6136C135.714 26.6103 130.893 21.8816 130.893 15.6032ZM149.496 15.6032C149.496 11.3208 146.298 7.99079 142.183 7.98747C138.069 7.98415 134.903 11.2445 134.903 15.5103C134.903 19.8142 138.067 23.1011 142.215 23.1111C146.363 23.121 149.496 19.8906 149.496 15.6049V15.6032Z" fill="#333333"/>
<path d="M63.179 15.5499C63.179 12.2913 63.1956 9.0326 63.1657 5.77393C63.1657 5.08205 63.3051 4.81491 64.0716 4.81989C68.8534 4.85418 73.6352 4.85418 78.4171 4.81989C79.1289 4.81989 79.3529 5.05877 79.2782 5.72411C79.1869 6.53712 79.6299 7.57911 79.0774 8.1084C78.5664 8.59786 77.546 8.25111 76.7545 8.25609C73.8244 8.27268 70.8926 8.29088 67.9608 8.24442C67.1793 8.23281 66.9752 8.48337 67.0101 9.22504C67.0665 10.4661 67.0648 11.7138 67.0101 12.9516C66.9802 13.6352 67.2374 13.7812 67.8612 13.7679C70.8743 13.7397 73.8874 13.768 76.9006 13.7414C77.5875 13.7414 77.9376 13.8558 77.848 14.6357C77.7584 15.4155 78.1682 16.4608 77.692 16.9585C77.171 17.5177 76.1207 17.1411 75.3044 17.151C72.9002 17.1776 70.4927 17.1593 68.0902 17.161C67.0283 17.161 67.0283 17.161 67.0267 18.2594C67.0267 19.4474 67.0748 20.637 67.0101 21.8217C66.9653 22.628 67.1594 22.9035 68.0371 22.8886C71.5214 22.8321 75.0058 22.8886 78.4901 22.8471C79.2301 22.8388 79.4856 23.0528 79.4109 23.7745C79.3626 24.3266 79.3626 24.8817 79.4109 25.4337C79.459 26.0742 79.2351 26.2982 78.5714 26.2915C75.8088 26.26 73.0429 26.2783 70.2754 26.2783C68.1748 26.2783 66.0743 26.26 63.9704 26.2882C63.3598 26.2882 63.1624 26.1074 63.1674 25.4852C63.1939 22.1767 63.179 18.8633 63.179 15.5499Z" fill="#333333"/>
<path d="M47.3469 4.50294C49.8788 4.48299 52.353 5.25899 54.4201 6.72131C54.8963 7.05315 55.0605 7.32355 54.6358 7.8296C54.1968 8.36225 53.7965 8.92563 53.4378 9.51537C53.1325 10.0131 52.8654 10.0248 52.3909 9.6979C50.594 8.46512 48.6427 7.69686 46.4061 7.95072C45.5882 8.04364 44.8465 8.32736 44.2807 8.94624C43.262 10.0728 43.5639 11.7437 44.9444 12.5318C46.0345 13.1524 47.2523 13.4344 48.4586 13.7364C49.6704 14.009 50.8562 14.3865 52.0026 14.8646C54.5694 16.0045 55.7624 17.7599 55.6794 20.2985C55.5898 23.0245 54.1861 25.1102 51.6326 25.978C47.8895 27.2523 44.3321 26.6217 40.9806 24.6423C38.8319 23.3697 38.8518 23.3365 40.4115 21.4716L40.516 21.3438C41.2676 20.4429 41.2693 20.4412 42.2084 21.1497C44.1529 22.6181 46.3132 23.3979 48.7755 23.1872C50.4961 23.0378 51.6293 22.1668 51.8135 20.8743C51.9545 19.8787 51.6475 19.0806 50.7682 18.5381C49.8141 17.9474 48.7473 17.662 47.6754 17.3933C46.143 17.0386 44.6398 16.5677 43.179 15.9846C38.6992 14.1146 39.0509 8.05026 42.3942 5.86343C43.7464 4.99069 45.3492 4.50626 47.3469 4.50294Z" fill="#333333"/>
<path d="M96.4924 4.50618C99.479 4.48295 102.134 5.37394 104.407 7.37162C104.795 7.71508 104.883 7.95395 104.488 8.35547C103.926 8.92593 103.396 9.52693 102.9 10.1557C102.568 10.5888 102.316 10.5705 101.916 10.2205C100.692 9.15359 99.3098 8.38372 97.6755 8.10165C92.9335 7.28699 88.9398 11.05 89.333 16.1189C89.6134 19.7227 91.7338 22.2712 94.8648 22.9448C97.546 23.5222 99.9021 22.7441 101.903 20.9206C102.421 20.4477 102.744 20.3698 103.214 20.9522C103.661 21.4784 104.149 21.9688 104.672 22.4189C105.004 22.7209 104.941 22.9167 104.662 23.2137C101.543 26.5918 95.8188 27.6305 91.4899 25.5847C89.3788 24.5791 87.6453 22.9235 86.5438 20.8608C85.4422 18.7981 85.0306 16.4367 85.3692 14.1229C86.2353 8.28583 90.6056 4.50618 96.4924 4.50618Z" fill="#333333"/>
<path d="M158.342 15.6395C158.342 8.78864 164.058 3.77116 170.844 4.53937C173.342 4.82309 175.545 5.68427 177.446 7.33019C177.856 7.6836 177.979 7.94411 177.541 8.38048C176.977 8.94891 176.448 9.55115 175.956 10.184C175.636 10.5938 175.417 10.5839 175.036 10.2487C173.501 8.89313 171.74 8.03033 169.652 7.99217C165.915 7.92249 162.9 10.6469 162.436 14.5029C161.951 18.5331 164.304 22.1717 167.982 22.9532C170.637 23.5173 172.96 22.7425 174.951 20.9522C175.52 20.4395 175.892 20.3267 176.373 21.0202C176.653 21.4217 177.062 21.7337 177.413 22.0871C178.158 22.8337 178.168 22.8454 177.363 23.5804C173.985 26.6532 170.033 27.355 165.789 26.026C161.649 24.7302 159.305 21.7121 158.505 17.4778C158.47 17.288 158.446 17.0963 158.432 16.9037C158.397 16.4624 158.369 16.0244 158.342 15.6395Z" fill="#333333"/>
<path d="M112.313 15.4521C112.313 12.1337 112.329 8.82525 112.3 5.51349C112.3 4.89295 112.475 4.68388 113.091 4.71208C113.836 4.75854 114.583 4.75854 115.328 4.71208C116.01 4.66563 116.144 4.95598 116.141 5.57652C116.119 10.9042 116.126 16.2336 116.131 21.5629C116.131 22.8621 115.98 22.7061 117.279 22.7095C120.403 22.7095 123.526 22.7277 126.648 22.6995C127.264 22.6995 127.509 22.8654 127.443 23.4909C127.35 24.3587 127.818 25.4819 127.246 26.0361C126.716 26.5472 125.611 26.1838 124.757 26.1871C120.996 26.2004 117.235 26.2004 113.474 26.1871C112.137 26.1871 112.313 26.353 112.313 24.9776C112.308 21.8035 112.313 18.6278 112.313 15.4521Z" fill="#333333"/>
</svg>
