<svg width="26" height="26" viewBox="0 0 26 26" fill="none" xmlns="http://www.w3.org/2000/svg">
<path d="M21.8962 11.6607V8.63374C21.8962 6.92375 21.8962 6.06876 21.4748 5.51093C21.0535 4.95311 20.1008 4.68229 18.1954 4.14066C16.8936 3.77062 15.7461 3.3248 14.8292 2.9178C13.5792 2.3629 12.9542 2.08545 12.5121 2.08545C12.07 2.08545 11.445 2.3629 10.195 2.9178C9.27814 3.3248 8.13063 3.77062 6.82884 4.14066C4.92346 4.68229 3.97076 4.95311 3.54941 5.51093C3.12805 6.06876 3.12805 6.92375 3.12805 8.63374V11.6607C3.12805 17.5259 8.40687 21.0449 11.0461 22.4378C11.6791 22.7719 11.9956 22.9389 12.5121 22.9389C13.0287 22.9389 13.3451 22.7719 13.9781 22.4378C16.6173 21.0449 21.8962 17.5259 21.8962 11.6607Z" stroke="white" stroke-width="1.56401" stroke-linecap="round"/>
<path d="M12.5121 16.6829C12.6577 16.6829 12.793 16.6166 13.0636 16.4839L15.2389 15.4179C16.2015 14.9462 16.6828 14.7103 16.6828 14.3369V9.64484M12.5121 16.6829C12.3666 16.6829 12.2312 16.6166 11.9607 16.4839L9.7853 15.4179C8.82273 14.9462 8.34143 14.7103 8.34143 14.3369V9.64484M12.5121 16.6829V11.9908M16.6828 9.64484C16.6828 9.27135 16.2015 9.03548 15.2389 8.56378L13.0636 7.49777C12.793 7.36514 12.6577 7.29883 12.5121 7.29883C12.3666 7.29883 12.2312 7.36514 11.9607 7.49777L9.7853 8.56378C8.82272 9.03548 8.34143 9.27135 8.34143 9.64484M16.6828 9.64484C16.6828 10.0183 16.2015 10.2542 15.2389 10.7259L13.0636 11.7919C12.793 11.9245 12.6577 11.9908 12.5121 11.9908M8.34143 9.64484C8.34143 10.0183 8.82272 10.2542 9.7853 10.7259L11.9607 11.7919C12.2312 11.9245 12.3666 11.9908 12.5121 11.9908" stroke="white" stroke-width="1.56401" stroke-linejoin="round"/>
</svg>
