<svg width="197" height="30" viewBox="0 0 197 30" fill="none" xmlns="http://www.w3.org/2000/svg">
<path d="M123.016 19.1107C123.016 20.9522 123.025 22.7937 123.016 24.6337C122.998 27.9113 121.544 29.5247 118.276 29.8429C115.422 30.1244 112.619 29.9837 109.986 28.6729C109.73 28.5448 109.489 28.4491 109.195 28.6293C106.217 30.4496 103.012 30.047 99.8102 29.5458C98.8715 29.3767 97.9428 29.1563 97.0283 28.8855C95.9991 28.6039 95.5725 27.9211 95.5852 26.8371C95.6218 23.5088 95.5669 20.1792 95.619 16.8524C95.6331 15.9894 95.3599 15.7965 94.549 15.8162C92.2837 15.8683 90.0156 15.8542 87.7504 15.8162C87.0999 15.8078 86.8184 15.9275 86.8339 16.6708C86.8831 19.0417 86.8339 21.4154 86.8578 23.7876C86.8676 25.1195 87.3604 25.6361 88.7134 25.7122C89.3089 25.746 89.9101 25.6573 90.5098 25.6249C90.7576 25.6108 91.0969 25.4841 91.2363 25.6052C92.1134 26.3344 91.8374 27.4622 92.1092 28.4054C92.2598 28.9292 91.8276 29.1249 91.3742 29.2502C89.2624 29.8274 87.1112 29.9794 84.9656 29.55C82.4047 29.0361 81.1348 27.3946 81.0869 24.6028C81.0419 22.0189 81.0419 19.434 81.0869 16.8482C81.1038 16.0176 80.8772 15.7515 80.0282 15.7782C78.1191 15.8402 76.203 15.843 74.2925 15.7782C73.3619 15.7472 73.0255 15.957 73.0395 16.9805C73.1071 20.7677 73.0395 24.5577 73.0846 28.3463C73.0944 29.2164 72.8621 29.5416 71.9583 29.4867C70.7561 29.4135 69.5507 29.4135 68.3485 29.4867C67.4306 29.5444 67.2222 29.1868 67.2335 28.3322C67.2729 24.5436 67.2208 20.7551 67.2715 16.9665C67.2842 16.057 67.0871 15.7459 66.117 15.7712C64.0052 15.8275 64.2136 16.1091 64.2052 13.8635C64.1967 11.7869 64.2052 11.7517 66.2649 11.7771C67.0744 11.7897 67.332 11.5405 67.2645 10.7535C67.2232 10.0822 67.2326 9.40876 67.2926 8.73886C67.47 6.14275 68.93 4.53497 71.4824 4.16892C73.4295 3.88735 75.3597 4.07882 77.2843 4.4505C78.0699 4.60255 78.2839 5.00238 78.129 5.71758C78.1175 5.78753 78.1095 5.85801 78.1051 5.92876C77.8235 8.23063 77.8235 8.23064 75.5174 8.05466C73.5224 7.9012 72.2793 9.6695 73.0874 11.4786C73.2282 11.7883 73.4689 11.7531 73.7041 11.7531C75.9355 11.7602 78.167 11.7531 80.3971 11.7644C80.9095 11.7644 81.0771 11.5659 81.0686 11.0731C81.0475 9.90459 81.0799 8.73607 81.056 7.56754C81.0419 6.8805 81.3066 6.53698 82.0119 6.44124C83.2719 6.26526 84.5292 6.04702 85.7751 5.78656C86.6086 5.61199 86.8648 5.92737 86.8465 6.71859C86.817 7.98567 86.8944 9.27105 86.8198 10.5424C86.7649 11.4758 86.9986 11.8095 88.0151 11.7883C92.0514 11.7236 96.0892 11.7996 100.123 11.7376C101.231 11.7207 101.5 12.0995 101.487 13.1455C101.435 17.1453 101.487 21.1478 101.448 25.149C101.441 25.9304 101.693 26.2401 102.447 26.2556C102.94 26.2655 103.433 26.3724 103.924 26.4091C105.557 26.5273 106.35 25.8685 106.381 24.2466C106.43 21.6617 106.413 19.0769 106.422 16.492C106.422 15.2531 106.465 14.0114 106.406 12.7753C106.367 11.9573 106.688 11.725 107.458 11.7531C108.695 11.7968 109.938 11.8095 111.175 11.7531C112.04 11.7123 112.254 12.0713 112.249 12.871C112.221 16.9073 112.266 20.9451 112.214 24.9787C112.202 25.9051 112.512 26.2725 113.395 26.281C113.747 26.281 114.099 26.3936 114.448 26.4133C116.247 26.5118 117.182 25.6446 117.186 23.8481C117.196 20.2018 117.213 16.554 117.173 12.9076C117.164 12.0347 117.423 11.7053 118.315 11.7517C119.551 11.8151 120.795 11.7982 122.032 11.7517C122.768 11.7264 123.029 11.9911 123.018 12.7372C122.992 14.8603 123.016 16.9862 123.016 19.1107Z" fill="#333333"/>
<path d="M169.398 22.9624C167.841 22.9624 166.283 22.9835 164.726 22.9525C164.08 22.9399 163.928 23.1848 164.049 23.7789C164.294 24.9756 165.097 25.7683 166.422 26.04C168.445 26.4525 170.435 26.2371 172.406 25.7091C173.757 25.3473 173.846 25.3994 174.157 26.6946C174.636 28.6882 174.636 28.684 172.618 29.2542C169.772 30.0595 166.884 30.1299 163.996 29.6047C160.502 28.9684 158.62 26.8763 158.124 23.0384C157.837 20.9632 157.912 18.854 158.345 16.8043C159.037 13.6549 160.739 12.0598 163.947 11.5628C166.279 11.201 168.593 11.2278 170.877 11.919C173.001 12.5596 174.282 13.9548 174.819 16.092C175.31 18.0377 175.296 20.0157 175.286 22.005C175.286 22.7625 174.826 22.9638 174.177 22.9624H169.39H169.398ZM166.821 19.6623C167.563 19.6623 168.305 19.6623 169.047 19.6623C169.314 19.6623 169.68 19.7299 169.68 19.3075C169.68 18.0799 169.866 16.7607 168.904 15.7949C167.943 14.8291 166.683 14.9629 165.506 15.2698C164.306 15.5809 163.58 17.3689 164.001 19.1808C164.241 20.217 165.244 19.4554 165.872 19.6511C166.162 19.7369 166.503 19.6637 166.821 19.6623Z" fill="#333333"/>
<path d="M44.985 20.7086C44.9707 19.6913 45.0323 18.6744 45.1694 17.6662C45.6185 14.1128 47.505 12.1291 51.0402 11.5659C53.2266 11.2168 55.4046 11.2308 57.5657 11.7869C60.0999 12.4402 61.6696 14.0395 62.2187 16.6103C62.7625 19.1424 62.7912 21.7581 62.3032 24.3015C61.7006 27.4875 59.9534 29.1094 56.7027 29.6782C54.7132 30.0324 52.6761 30.0238 50.6897 29.6528C47.4361 29.0418 45.6213 27.0919 45.1863 23.7989C45.0354 22.776 44.9681 21.7425 44.985 20.7086ZM50.9346 20.5552C50.9234 21.7589 50.9008 22.964 51.1388 24.1523C51.4203 25.5771 52.1975 26.1486 53.8137 26.143C55.43 26.1374 56.2268 25.5686 56.4493 24.1171C56.8061 21.804 56.8061 19.4499 56.4493 17.1369C56.231 15.729 55.4539 15.1799 53.8912 15.1658C52.1904 15.1518 51.4738 15.6445 51.1627 17.0665C50.9051 18.2167 50.9248 19.3866 50.9346 20.5552Z" fill="#333333"/>
<path d="M142.32 21.3646C142.32 22.9921 142.335 24.621 142.32 26.2485C142.304 27.876 141.679 28.7616 140.109 29.205C136.753 30.1431 133.219 30.2528 129.811 29.5246C126.126 28.7545 124.423 24.5042 126.323 21.2295C127.129 19.8427 128.453 19.3077 129.912 19.0388C131.72 18.7066 133.546 18.4756 135.353 18.1434C135.793 18.0631 136.533 18.3081 136.543 17.4493C136.553 16.5905 136.63 15.674 135.539 15.3699C134.217 15.001 132.864 15.1151 131.537 15.3009C130.419 15.4586 129.318 15.7359 128.218 16.0048C127.703 16.1287 127.398 16.0302 127.309 15.4783C127.275 15.2685 127.233 15.0559 127.185 14.8532C126.675 12.6302 126.67 12.6006 128.918 12.0867C131.875 11.4011 134.845 11.0717 137.862 11.5954C140.96 12.1318 142.324 13.7663 142.324 16.9115C142.323 18.3935 142.321 19.8779 142.32 21.3646ZM136.547 23.765C136.547 23.0949 136.547 22.4262 136.547 21.756C136.547 21.3787 136.47 21.1576 136.001 21.2478C134.896 21.4632 133.778 21.611 132.674 21.8376C131.97 21.9784 131.456 22.4472 131.327 23.1695C131.151 24.155 131.073 25.2011 132.011 25.8769C133.309 26.8103 134.818 26.63 136.177 26.1795C137.022 25.898 136.378 24.8604 136.543 24.186C136.561 24.0463 136.562 23.905 136.546 23.765H136.547Z" fill="#333333"/>
<path d="M35.9802 11.345C37.6412 11.3588 39.2948 11.5663 40.9078 11.963C41.6666 12.1475 41.8524 12.5037 41.6976 13.2526C41.24 15.4771 41.2611 15.5052 39.0142 15.1589C38.0733 14.9942 37.1157 14.9469 36.1632 15.0181C35.2791 15.104 34.4513 15.3884 34.3752 16.4739C34.3034 17.5058 34.9384 18.0113 35.8577 18.2365C36.953 18.504 38.0667 18.7081 39.1479 19.0235C41.019 19.5669 41.9848 20.9016 42.234 22.7938C42.783 26.9625 40.7585 29.4544 36.4617 29.8416C34.0106 30.0626 31.5961 29.7543 29.2098 29.1672C28.4467 28.9786 28.2242 28.6294 28.365 27.8129C28.7606 25.4195 28.7184 25.4195 31.04 25.8869C32.1846 26.1178 33.3362 26.3205 34.5104 26.2304C35.755 26.1347 36.4181 25.5448 36.4645 24.5522C36.511 23.5597 36.0717 23.057 34.7863 22.7487C33.8585 22.5277 32.9068 22.3883 31.9973 22.111C29.6729 21.4071 28.5973 19.8682 28.5171 17.2637C28.434 14.5817 29.4941 12.8289 31.7186 11.9659C33.0828 11.4309 34.5259 11.3464 35.9802 11.345Z" fill="#333333"/>
<path d="M0.0273639 13.4087C-0.0444375 11.3659 0.0273664 8.92178 1.05511 6.63399C3.03317 2.23017 6.54581 0.157784 11.2931 0.0169965C12.3547 -0.0139766 13.419 0.036726 14.4806 0.00152921C15.0817 -0.0195889 15.3056 0.174679 15.2324 0.792735C15.0052 2.68867 14.7997 4.58788 14.6157 6.49038C14.5749 6.89867 14.4074 7.03806 14.0188 7.02961C13.3458 7.01553 12.6729 7.02961 11.9999 7.02961C8.80262 7.05495 7.17372 8.6585 7.12444 11.8727C7.09488 13.7142 7.08924 15.5571 7.13148 17.3972C7.14837 18.1124 6.97239 18.401 6.19665 18.3827C4.46357 18.3278 2.72625 18.3348 0.987533 18.3827C0.265295 18.4024 -0.0275421 18.2109 0.00202322 17.445C0.0681932 16.2315 0.0273639 15.0249 0.0273639 13.4087Z" fill="#333333"/>
<path d="M19.052 16.0768C19.1548 18.259 18.9999 20.8213 17.8567 23.2218C16.0265 27.0568 12.9404 29.1531 8.7703 29.6262C7.33709 29.7881 5.87149 29.6571 4.42279 29.7022C3.82022 29.7219 3.71886 29.4699 3.77939 28.9419C3.99761 27.1117 4.21161 25.2927 4.37211 23.4625C4.42139 22.9078 4.63116 22.7178 5.15629 22.7459C5.61385 22.7713 6.07563 22.7459 6.5346 22.7459C10.2443 22.7234 11.9577 21.0142 11.9985 17.2777C12.0168 15.722 12.0281 14.1649 11.9901 12.6092C11.9746 11.9827 12.1309 11.7364 12.8109 11.7533C14.6496 11.7983 16.4897 11.7842 18.3283 11.7533C18.8675 11.7533 19.0844 11.894 19.0632 12.4671C19.021 13.5286 19.052 14.5915 19.052 16.0768Z" fill="#333333"/>
<path d="M146.574 21.2858C146.574 19.0219 146.616 16.7567 146.556 14.4942C146.525 13.3919 146.968 12.7541 147.979 12.4401C150.606 11.6264 153.312 11.411 156.043 11.3828C156.607 11.3828 156.881 11.6785 156.932 12.2177C156.939 12.2881 156.944 12.3585 156.95 12.4289C157.208 15.4783 157.208 15.4783 154.158 15.6304C154.088 15.6304 154.017 15.6402 153.947 15.6444C152.349 15.7486 152.349 15.7486 152.349 17.3339C152.349 21.0127 152.321 24.6914 152.369 28.3702C152.381 29.2698 152.087 29.5345 151.224 29.488C149.99 29.4219 148.746 29.4317 147.51 29.488C146.744 29.5204 146.549 29.2248 146.56 28.5025C146.592 26.0965 146.574 23.6904 146.574 21.2858Z" fill="#333333"/>
<path d="M196.209 17.0793C196.209 19.3403 196.176 19.3755 193.936 19.4796C190.207 19.6542 188.926 18.2605 189.431 14.5718C189.677 12.7416 190.445 11.9813 192.278 11.6969C193.421 11.5195 194.53 11.7082 195.643 11.9475C196.186 12.0644 196.19 12.3699 196.123 12.8064C196.045 13.3118 195.719 13.178 195.406 13.1344C194.561 13.0133 193.725 12.9148 192.872 13.0246C192.068 13.1274 191.605 13.5638 191.405 14.3381C191.26 14.9233 191.212 15.5283 191.264 16.1289C191.382 17.8015 192.072 18.3815 193.746 18.2745C194.136 18.2492 194.518 18.2126 194.408 17.7114C194.311 17.2735 194.83 16.5696 193.945 16.4443C193.463 16.3725 193.045 16.3401 193.108 15.6545C193.183 14.8351 193.788 15.2955 194.146 15.1659C194.181 15.1603 194.217 15.1603 194.252 15.1659C196.209 15.1505 196.209 15.1505 196.209 17.0793Z" fill="#333333"/>
<path d="M187.084 19.4005C186.228 19.6441 186.01 19.0176 185.972 18.415C185.869 16.7918 184.694 17.2634 183.747 17.1381C182.72 16.9973 182.496 17.5802 182.317 18.3728C182.092 19.3583 181.447 19.6835 180.477 19.4231C180.114 19.3259 180.136 19.1415 180.222 18.881C180.966 16.6749 181.719 14.4716 182.447 12.264C182.573 11.8769 182.811 11.8276 183.158 11.8008C185.64 11.6079 185.638 11.6023 186.396 14.0056C186.866 15.4838 187.3 16.9762 187.832 18.4319C188.137 19.2414 187.995 19.5596 187.084 19.4005ZM184.078 15.9583C185.219 15.9583 185.265 15.9456 185.161 15.4824C184.998 14.7658 184.771 14.0647 184.558 13.3608C184.495 13.1524 184.368 12.9764 184.114 12.9919C183.859 13.0074 183.785 13.1961 183.728 13.4143C183.62 13.893 183.479 14.3634 183.305 14.8221C182.897 15.795 183.224 16.1145 184.078 15.9583Z" fill="#333333"/>
</svg>
