<svg width="18" height="18" viewBox="0 0 18 18" fill="none" xmlns="http://www.w3.org/2000/svg">
<path fill-rule="evenodd" clip-rule="evenodd" d="M16.0723 3.21317C16.0723 2.02924 15.1133 1.07031 13.9294 1.07031H3.21512C2.03119 1.07031 1.07227 2.02924 1.07227 3.21317V13.9275C1.07227 15.1114 2.03119 16.0703 3.21512 16.0703H13.9294C15.1133 16.0703 16.0723 15.1114 16.0723 13.9275V3.21317Z" fill="#013730"/>
<path d="M4.0374 12.9314H5.10883L7.96955 9.6796L10.4579 12.926H13.3669L9.5499 7.8796L12.7803 4.20996H11.7088L9.05437 7.22603L6.77758 4.21264H3.7749L7.46865 9.03139L4.03472 12.9341L4.0374 12.9314ZM5.40615 5.01353H6.38115L11.7544 12.1225H10.857L5.40883 5.01353H5.40615Z" fill="white"/>
</svg>
